<svg _ngcontent-c2="" class="logo" viewBox="0 0 645.9 136.4">
    <path _ngcontent-c2="" class="logo__box logo__box--01" d="M57.1 53.4c-0.1-0.3-0.1-0.5-0.1-0.8l-0.6 0.3c0.1-0.3 0.1-0.5 0.4-0.5 -0.4-0.3-1 0.2-1.5-0.4 0.3-0.4-0.3-1.2 0.5-1.3 -0.3 1.2 0.8-0.1 0.9 0.9 -0.1-0.2-0.1-0.4 0-0.7 0.1 0 0.2 0 0.2 0.1 0.7-1.2-0.9-0.6-0.8-1.8 0.4 0.2 0.8-0.3 0.7-0.5 0 0.5-0.7 0.2-1.1-0.2 0.4-0.8-0.2-0.9-0.2-1.3l-0.2 0.5c-0.2-0.1-0.3-0.2-0.4-0.4 0-0.1 0-0.2-0.1-0.3 0-0.2 0-0.3-0.1-0.5 0.3-0.1 0.2 0.7 0.4 0.4 -0.4-0.4-0.2-0.9 0.1-1.5 0.2-0.6 0.5-1.4 0.3-1.9 0.3-0.8 0.8-0.5 1-1.3 -0.5-1 0.3-1.9 0.3-3 -0.2 0-0.5 0.1-0.9 0.2 0 0.6 0.1 0.4-1.5 1.1l1.5-0.3 0.2 1.1c-0.2-0.3-0.4-0.5-0.7-0.6l-0.5 0.2c0.1 0 0.2 0 0.4 0 0.1 0.5 0.3 0.9 0.2 1.4 -0.5-0.4-0.3-0.3-0.8 0.4 0.4-0.7 0.4-1.1 0.2-1.4 -0.7 0.2-1.4 0.5-1.7 0.2l1.1-1.5c-1.6-0.6-4.1 1-5.6 0.7l0.5 0.2c-0.2 0.6-0.9 0.1-1.4 0.4 0-0.5-0.3-0.7-0.5-0.9 0 0.4-1.1 0-1.2 1l-0.7-0.6c-1.3-0.2-1.3 1.5-2.5 1.4 0.3-0.5-0.2-0.9 0.6-1.3 -0.4 0-0.8-0.1-0.7 0.3 -0.2-0.3-1.1 0.7-1.5 0.3 -0.2 0.2-0.2 0.7-0.6 0.7 -0.1-0.1 0-0.2 0-0.2 0 0.2-0.7 0.4-0.3 0.9 -1.3-1.5-3.4 0.3-4.5-1 -0.9 0.2-1.9 0.4-2.7 0.5 0-0.1 0-0.2 0.1-0.2 -1.1-0.4-0.6 1.4-1.9 1 -0.7-0.8 0.6-0.5 0.2-0.7 -0.2-1.6-1.5 0.3-2.4-0.6l0.2-0.1c-0.7-0.5-1.5 0.7-2.6 0.6 0 0 0-0.1 0-0.2 -0.7 0.9-2 1.2-3 1.5 0.3-0.6 0.4-0.4 0.2-1 -0.4 0.1 0.2 1-0.7 1.2 -0.3-0.3-1-0.6-1.1-1.3l0.8-0.1c-0.5-0.9-1.1 0.1-1.5 0l0-0.4C20.2 42 20.2 43 18.8 43l0.2 0.3c-0.7 1-0.7-0.5-1.4 0.2l-0.3-1c-0.5 0.3-1.7 1-2.6 1.3 0.5-0.8 1.5-1.2 2.1-1.6 -0.5 0-1.7 0.2-1.9 0.6 0.2-0.1 0.4-0.4 0.6-0.2 -0.6 0.8-1.4 1.2-2.3 1.2 0.1-1.9-2.6-0.4-3.4-1.8 -0.4 0.2-0.9 0.3-1.3 0.3 -0.2 0-0.4 0-0.7 0 -0.4 0-0.7 0-1.1 0 -1.5-0.1-3.3-0.2-5-0.1 2.6 1.4-1 0.1 0.9 1.5 0 0-0.1 0-0.1 0 0.1 0.6 0.1 0.8 0 0.7l0.1-0.1c0 0 0 0.1-0.1 0.1l0 0c-0.3 0.4-0.5 0.9-0.8 1.5 -0.4 0.4-0.4-0.9-0.8-1 0 1.8-0.6 0.5-0.9 1.7 0.5-0.1 0.9 0.9 0.8 1.9 0.2-0.5 0.4-1 0.6-1.4 0.5 1.3 0.2 1.7 0 2.3 -0.3 0.3-0.6 0.7-0.1 1.4l-0.5-0.4c0.4 0.7 0.2 2.8 1.5 3.4 -0.2 0.1-0.6 0.4-0.7 0 0 1.8 1.7 3.9 1 5.3l-0.4-0.1c0.1 0.3 0.7 0.5 0.4 1 -0.2 0-0.4-0.1-0.4 0.1 0.1 0.2 0.7 0.8 0.6 1.3l-0.5-0.3c-0.3 1.8 1.3 2.6 1.6 4 -1.1 0.1-1.3 1.5-1.4 2.2l-0.2 0c0.1 2 1.2 3.4 1.8 5.2 -1.1 1.3-0.1 4-0.6 5.9 0.2-0.3 0.9 0 1 0.3 -0.2 0.5 0.9 1.1-0.1 1.2l0-0.2c-0.9 0.4-0.6 1.3-0.6 2l1.3 0c-1.7 2 1.1 4.8-0.5 5.9 0.4 0.4 0.4 1 0.8 1.4l-0.7 0c-0.1 1.3-0.1 1.9 0.2 3.4l-0.5-0.3c0 0.9 2.1 0.9 2.2 1.7l-1 0.3c0.2 1.5-0.6 3.1 0.5 4.5 -0.2 0-0.5 0-0.5-0.3 0 0.7-0.5 2.8 1 2.4 -0.9 0.1 0.1 1.6 0.5 2.3l-0.7-0.1c0.9 0.6 1.2 0.6 1.5 1.5 -0.1 0.2-0.4 0.2-0.4 0.1 -0.1 0.6 0.7 0.5 0.5 1.4l-0.5-0.3c0 0.8 0.2 0.7 0.8 1.1 0.3 0.3 0 1.8-0.6 2.2 0.4 0 0.9 0.4 0.8 1.1 -0.2 0.2-0.4 0.1-0.5 0 -0.1 0.9 0 1.5 0.2 1.9 1-0.1 1.7-0.3 2.2 0.2 -0.1 0.2-0.1 0.3 0 0.4 -1.2-0.2-2.1-0.3-2.5-0.4 0-0.2 0-0.2 0-0.2 -0.1 0.1-0.3 0.3-0.3 0.5 0 0.3 0.5 0.6-1 1.1 0.9-0.1 2-0.4 2.9-0.5 1-0.2 1.8-0.2 2.4 0 0 0.1 0.1 0.1 0.1 0.2l-0.2 0.1c0.3 0.1 0.6 0.1 0.8 0 0.2 0.1 0.4 0.2 0.6 0.3 0 0.5 0.9 0.4 1.3 0.5 0.1-0.7 0.6-0.5 0.2-1.2 0.1 0.1-0.1 0.1-0.4 0.1 -0.1 0-0.1 0-0.2 0 0 0 0 0 0-0.1 -0.3 0-0.6 0-1-0.1 0.4-0.3 0.8-0.6 1.2-0.1 0.3-0.4 0.6-0.8 0.7-1 0.4 1 1.5 1.7 1.5 2.3 1.3-0.2 3 0.1 4-1 0.4-0.1 0.4 0.4 0.5 0.7 -0.2 0.1-0.5 0-0.6 0.2 0.8-0.2 2.1 0.2 2.4-0.7 0.9 0.5-0.6 0.8 0.6 0.8l-0.2 0.3c2.3 1.8 4.3-1.8 6.8 0.4 -0.2-0.1-0.3-0.2-0.3-0.4 3 1.2 6.5 0.1 9.4 1.8 0.8 0.4 1-0.2 1.6-0.6l0.1 0.8 1-0.7c1.4-0.5 2 2.1 3.8 1.2l-0.1-0.5c0.6 0.2 1.9 0 1.7 0.5 0.1-0.1 0.3-0.5 0.5-0.2l0 0.4 1.5-0.5c1.1 0.4-0.4 1.5 1.2 1.8 0.6-0.1 1.9-0.9 1.7-1.2 -0.2-0.1-0.6-0.3-0.6-0.7l0.6-0.1c0-0.1 0-0.1 0.1-0.2l0.1 0 0-0.4c0.2-0.7 0.3-1.3 0-2l0.1-4.2 0.2 0.1 -0.2-0.2 0-0.8c0.1 0 0.3 0.1 0.3 0.3 0.5-0.6-0.4-0.6 0.2-1.1 0.1-0.1 0.1 0 0.2 0l-0.3-0.6c0.2 0.1 0.7-0.1 0.6 0.3 0.6-1.1-0.7-1.8 0-2.2l0.1 0.1c-0.2-1.1-0.5-0.7-1-0.8l0-0.7 1.3-0.5 -0.8-0.2c0-0.2 0.1-0.5 0.4-0.4 -0.5-0.6-0.3 0.1-0.8-0.2 0.7-0.7-0.3-2.1 0.9-2.2 -0.6-0.3-0.5 0.7-0.8-0.1 1.3-0.2-0.2-0.9 0.4-1.6 0.7 0.2 0.3 0.9 0.9 0.2 -1.1-0.4 0.3-1.3 0.1-1.9 -0.9 0-0.4-1.3-0.6-2.2 0.3 0.1 0.5-1.8 0.9-2.7l0.2 0c-0.9-0.2-0.7-1.1-0.9-1.8 0.5 0 0.8 0.2 1 0.5l0-0.6c-0.3-0.2-0.4-0.4-0.5-0.8l0.7 0.2c0-0.8-0.8-1.7-0.3-2.8 -0.4 0-1.1 0.3-1.6 0.2l0-0.6c0.2 0 0.4 0.1 0.5 0.2 0-0.1-0.3-0.4-0.1-0.6l0.6 0.5c0.3-0.5-0.5-0.3-0.4-0.7 0.5 0 0.4-0.3 0.7-0.2 0 0.1-0.2 0.3 0 0.5 0.1-0.4 0.4-1 0.8-1.2 -0.3 0-0.7 0-0.7-0.3 0-0.8 0.6-0.3 0.9-0.8 -0.3-0.2 0-0.7-0.7-0.8 0-0.2 0.4-0.3 0.5-0.4 -0.3-0.4-0.1-2-0.8-1.6l-0.1 0.1c0 0 0 0 0-0.1 -0.7-1.4 0.5-3 0.2-4.4l0.2 0c-0.3-0.9-0.1-1.9-0.7-2.5 0-0.3 0.5-0.6 0.7-0.5 -0.2-0.7-0.4-0.7 0-1.7 0.4 0.7 0.4-0.2 0.3 0.7 0.2-0.8 0.6-1 0-1.9 0.6 0.3 0.8-0.6 0.6-1l-0.5 0.6c-0.1-0.5 0-0.8 0-1.2l0.8 0.2c1-1.7-1.7-3.1 0-4.4 -0.6-0.5-0.4 0.9-1.1 0.5 0.1-0.8 1.3-1.6 1.3-1.8 0.5-1.1-1.2-1-0.9-2.2 -0.3 0.1-1.1 0.3-1.3-0.6 0.1-0.8 1.3-1 1.5-0.5 0 0.2-0.1 0.3-0.2 0.3 0.1 0.3 0.2 0.6 0.5 0.3l-0.3-0.1c0.3-0.4 0.3-1.5 0.8-1.2 -0.3-0.6-0.5-0.3-0.6 0.2 0.4-1 0-1.6 0.3-2.6 -0.2 0.2-0.5 0.3-0.5 0.1 0.4-1.5-0.5-0.7-0.7-1.7 0.5-0.6 1.1 0.2 0.7-0.8 0.3-0.6 0.8-0.1 1 0.1 -0.6-1 0.4-1.8 0.5-2.3L57.1 53.4zM14.1 113.9C14.1 113.8 14.1 113.8 14.1 113.9c0 0 0 0.2-0.1 0.3 -0.3 0.1-0.4-0.1-0.4-0.2C13.7 113.9 13.8 113.9 14.1 113.9zM40.3 67.7c-0.3 0.7-0.6 1.4-0.8 2 -1.6 3.7-3.7 7.1-6.3 10.4 -0.9 1.2-2 2.3-3.2 3.3 -1.2 1-2.5 1.7-4 2 0.3 2.1 0.7 4.2 1.1 6.2 0.4 2 0.9 4.1 1.4 6.1 0.2 0.7 0.1 1.3-0.2 1.7 -0.3 0.5-0.8 0.8-1.3 0.9 -0.5 0.1-1 0.1-1.6-0.1s-0.9-0.7-1.1-1.4c-1.2-4.5-2.1-9-2.7-13.5s-1-9.1-1.2-13.8c0-0.6-0.1-1.2-0.1-1.8 0-0.6 0-1.2-0.1-1.8 0-0.3 0-0.5 0-0.7s0-0.5-0.1-0.7V66c-0.1-0.6-0.2-1.2-0.2-1.7s-0.2-1.1-0.2-1.7c-0.1-0.7-0.1-1.4 0-2.1 0.1-0.7 0.2-1.4 0.4-2.1 0.2-0.7 0.6-1.3 1-1.8 0.4-0.5 1-0.9 1.8-1.1 1.2-0.3 2.4-0.3 3.6 0.1 1.2 0.4 2.3 0.9 3.4 1.4 1 0.5 2 1.1 3 1.7 1 0.6 2 1.1 3.1 1.7 0.5 0.3 1.1 0.5 1.6 0.8 0.5 0.3 1 0.6 1.4 1s0.8 0.8 1 1.4c0.3 0.5 0.4 1.2 0.5 1.9C40.7 66.3 40.6 67 40.3 67.7zM52.7 107.7c0 0-0.1 0.1-0.1 0.1l0-0.3C52.6 107.5 52.6 107.6 52.7 107.7zM36.1 65.4c0.1 0.1 0.2 0.3 0.2 0.6 -0.1 0.3-0.2 0.7-0.4 1.1 -0.1 0.2-0.1 0.4-0.2 0.5s-0.1 0.3-0.2 0.5c-0.2 0.4-0.4 0.8-0.5 1.1 -0.2 0.4-0.4 0.7-0.5 1.1 -0.9 1.8-2 3.6-3.2 5.3 -0.5 0.8-1.1 1.5-1.7 2.3 -0.6 0.7-1.4 1.5-2.3 2.2 -0.1 0.1-0.3 0.2-0.5 0.4 -0.1 0.1-0.3 0.2-0.4 0.2 -0.1 0.1-0.4 0.2-0.8 0.3 -0.1-0.4-0.1-0.8-0.1-1.3 0-0.4 0-0.9-0.1-1.3 -0.1-1.6-0.2-3.2-0.3-4.8s-0.1-3.2-0.2-4.8c0-1.1-0.1-2.3-0.2-3.4l-0.2-1c0-0.1 0-0.2 0-0.3 0-0.1 0-0.4-0.1-0.8 -0.1-0.9-0.1-1.8-0.1-2.6v-0.2c0-0.1 0.1-0.2 0.1-0.3 0-0.1 0.1-0.2 0.1-0.3 0 0 0.1 0 0.1 0 0 0 0.2 0 0.4 0 0.1 0 0.2 0 0.4 0.1 0.1 0 0.2 0.1 0.4 0.1 0.6 0.2 1.1 0.4 1.7 0.7 0.5 0.3 1 0.5 1.6 0.8 1.1 0.6 2.1 1.2 3.1 1.7 1 0.5 2 1.1 3.1 1.6C35.2 64.9 35.6 65.1 36.1 65.4z"></path>
    <path _ngcontent-c2="" class="logo__box logo__box--02" d="M115.7 97.6L115.7 97.6c-0.3-1-0.5-0.5-1-0.6l-0.1-0.7 1.2-0.6 -0.8-0.1c0-0.2 0-0.5 0.4-0.4 -0.6-0.5-0.3 0.1-0.8-0.2 0.6-0.8-0.5-2.1 0.7-2.3 -0.6-0.2-0.4 0.8-0.8 0 1.3-0.3-0.3-0.9 0.2-1.6 0.7 0.2 0.4 0.8 0.9 0.1 -1.2-0.3 0.1-1.4-0.1-1.9 -0.9 0-0.5-1.2-0.8-2.2 0.3 0 0.4-1.9 0.6-2.8l0.2 0c-0.9-0.1-0.8-1.1-1.1-1.7 0.5 0 0.8 0.1 1 0.4l-0.1-0.6c-0.3-0.1-0.5-0.3-0.6-0.7l0.7 0.1c-0.1-0.8-0.9-1.7-0.6-2.8 -0.4 0-1.1 0.4-1.6 0.4l0-0.6c0.2 0 0.4 0.1 0.5 0.2 -0.1-0.1-0.3-0.3-0.2-0.5l0.6 0.4c0.2-0.5-0.5-0.2-0.5-0.6 0.5 0 0.3-0.3 0.7-0.3 0.1 0.1-0.2 0.4 0 0.5 0.1-0.5 0.3-1 0.7-1.2 -0.3 0.1-0.7 0.1-0.7-0.3 -0.1-0.8 0.6-0.3 0.8-0.9 -0.4-0.2 0-0.8-0.8-0.7 0-0.2 0.3-0.3 0.5-0.4 -0.4-0.4-0.3-2.1-1-1.5l0 0.1c0 0 0 0 0-0.1 -0.8-1.4 0.2-3-0.2-4.4l0.2 0c-0.3-0.8-0.3-1.9-0.9-2.5 0-0.3 0.4-0.6 0.7-0.5 -0.2-0.6-0.5-0.7-0.2-1.7 0.5 0.6 0.4-0.3 0.4 0.6 0.1-0.9 0.5-1.1-0.2-1.9 0.6 0.3 0.7-0.7 0.5-1.1l-0.4 0.6c-0.1-0.4-0.1-0.8-0.1-1.3l0.8 0.2c0.9-1.8-1.9-3-0.4-4.5 -0.6-0.4-0.3 1-1 0.6 0-0.8 1.2-1.7 1.1-2 0.4-1.1-1.3-0.9-1.1-2.1 -0.3 0.2-1.1 0.4-1.4-0.5 0-0.8 1.2-1.1 1.4-0.6 0 0.2 0 0.3-0.1 0.3 0.1 0.3 0.3 0.6 0.6 0.2l-0.3-0.1c0.3-0.4 0.2-1.5 0.7-1.3 -0.3-0.6-0.5-0.2-0.6 0.2 0.3-1.1-0.1-1.6 0.1-2.7 -0.1 0.2-0.5 0.4-0.5 0.2 0.2-1.6-0.6-0.6-0.8-1.7 0.4-0.6 1.1 0.1 0.6-0.9 0.3-0.7 0.8-0.2 1 0 -0.6-0.9 0.2-1.8 0.3-2.4l0.3 0.5c-0.2-0.3-0.2-0.5-0.2-0.8l-0.6 0.3c0.1-0.3 0.1-0.6 0.3-0.6 -0.4-0.3-1 0.3-1.5-0.3 0.3-0.4-0.4-1.2 0.4-1.4 -0.2 1.3 0.8-0.2 1 0.8 -0.1-0.2-0.1-0.4 0-0.8 0.1-0.1 0.2 0 0.2 0.1 0.6-1.2-0.9-0.5-1-1.7 0.5 0.1 0.8-0.4 0.7-0.5 0 0.5-0.7 0.3-1.1-0.1 0.3-0.8-0.3-0.8-0.3-1.3l-0.1 0.5c-0.5-0.1-0.4-0.5-0.6-1.1 0.1 0 0.2 0 0.2 0.1 -0.2-0.6 0.8-2 0.2-2.9 0.2-0.8 0.8-0.5 0.9-1.2 -0.3-0.6-0.2-1.1-0.1-1.6 0.1-0.5 0.2-1.1 0.1-1.7 -0.2 0-0.4 0.1-0.6 0.1 0 0.6 0.1 0.4-1.4 1.1l1.1-0.2 0.4 1.4c-0.3-0.3-0.6-0.6-0.9-0.8l-0.1 0.1 0.1 0c0.1 0.6 0.5 1.1 0.4 1.6 -0.5-0.4-0.4-0.4-0.8 0.3 0.4-0.8 0.2-1.2 0-1.5 -0.6 0.2-1.1 0.4-1.4 0.1l1-1.5c-0.8-0.3-1.9 0-2.8 0.3 -1 0.3-2.1 0.6-2.7 0.5l0.5 0.2c-0.2 0.6-1 0.1-1.4 0.4 0-0.5-0.3-0.7-0.5-0.9 0 0.4-1.1 0-1.2 1l-0.7-0.6c-1.3-0.2-1.3 1.5-2.6 1.4 0.3-0.6-0.2-0.9 0.5-1.3 -0.4 0-0.8 0-0.8 0.3 -0.3-0.3-1.1 0.7-1.5 0.3 -0.2 0.2-0.2 0.7-0.6 0.7 -0.1-0.1 0-0.2 0-0.2 0 0.2-0.7 0.4-0.3 0.9 -1.3-1.4-3.4 0.3-4.6-0.9 -0.9 0.2-1.9 0.4-2.7 0.5 0-0.1 0-0.2 0.1-0.2 -1.1-0.4-0.6 1.4-1.9 1C86.7 34 88 34.3 87.6 34c-0.3-1.6-1.5 0.3-2.4-0.6l0.2-0.1c-0.7-0.5-1.5 0.7-2.6 0.7 0 0 0-0.1 0-0.2 -0.7 0.9-2 1.2-3 1.5 0.3-0.6 0.4-0.4 0.2-1 -0.4 0.1 0.2 1-0.7 1.3 -0.3-0.3-1-0.6-1.1-1.3l0.8-0.1c-0.5-0.9-1.1 0.1-1.6 0l0-0.4c-1.3 0.2-1.3 1.2-2.7 1.2l0.2 0.3c-0.4 0.5-0.5 0.4-0.7 0.2 -0.2-0.2-0.5-0.3-0.9 0 -0.2-0.3-0.4-0.6-0.6-0.9 -0.3 0.1-0.8 0.4-1.3 0.6 -0.5 0.3-1 0.5-1.4 0.6 0 0.1 0 0.1 0 0.2 0-0.1-0.1-0.2-0.1-0.3 0.1-0.6 1.2-1.1 2-1.5 -0.8 0-2.7 0.2-2.6 0.7 0.2-0.1 0.4-0.4 0.8-0.2 -0.1 0.3-0.3 0.5-0.5 0.7 0.2 0.9 0.3 1.6 0.3 2.4 -0.9-0.7-1.1 0.2-1.2 1.4 0 0.3-0.1 0.6-0.1 0.8 0 0.2-0.1 0.4-0.1 0.6 -0.1 0.4-0.3 0.6-0.7 0.8 0.6 1.8-0.5 3.5-0.6 5.5 1.5-0.6 0 0.6 1.5 0.6 0.1 0.5 0 0.7-0.1 0.7l0.1-0.1c0 0-0.1 0.1-0.1 0.1l0 0 -1 1.4c-0.5 0.3-0.3-0.5-0.6-0.5 -0.2 1-0.7 0.4-1.1 1.1 0.6-0.1 0.8 0.4 0.5 1l0.8-0.8c0.7 1.5-1.4 1.2-0.7 2.7l-0.4-0.5c0.2 0.8-0.2 2.8 1 3.6 -0.2 0.1-0.6 0.3-0.7-0.1 -0.3 1.8 1 4.1 0.2 5.5l-0.4-0.2c0.1 0.3 0.7 0.6 0.3 1 -0.2 0-0.4-0.2-0.4 0 0.1 0.2 0.6 0.9 0.3 1.4L66 63.5c-0.6 1.7 0.8 2.8 1 4.3 -1.1-0.1-1.5 1.3-1.8 2l-0.2 0c-0.3 2.1 0.7 3.6 1 5.5 -1.3 1.1-0.8 4-1.6 5.8 0.2-0.3 0.8 0.1 0.9 0.5 -0.3 0.4 0.7 1.3-0.3 1.1l0-0.2c-1 0.3-0.8 1.2-0.9 1.9l1.3 0.2c-2 1.7 0.4 5-1.4 5.9 0.3 0.5 0.3 1 0.5 1.5l-0.7-0.1c-0.3 1.2-0.4 1.9-0.3 3.4L63.1 95C63 95.8 65 96.2 65 97l-1.1 0.2c-0.1 1.5-1.1 3-0.3 4.6 -0.2 0-0.5-0.1-0.5-0.4 0 0.4-0.3 1-0.3 1.6 0 0.1 0 0.1 0 0.2 0 0.1 0 0.2 0 0.3 0 0.2 0 0.4 0.1 0.6 0.1 0.3 0.3 0.4 0.7 0.3 -0.5 0-0.5 0.7-0.5 1.5 0.1 0.8 0.3 1.6 0.5 2.1 -0.2 0.1-0.5 0.2-0.7 0.2 0.7 0.5 1 0.4 1.2 1.1 0.1 0 0.3-0.1 0.5-0.1 0.2 0.1-0.1 0.4-0.4 0.4 0.7 0.2 1.4-0.6 2.3-0.3l-0.8 0.4c1.1 0.1 1.2-0.2 2-0.7 0.4-0.1 0.8-0.1 1.2 0.1 0.4 0.2 0.8 0.4 0.9 0.8 0.2-0.4 0.6-0.9 1.1-0.7 0.1 0.2-0.1 0.4-0.2 0.5 1.3 0.5 2-0.8 2.9-0.1 0 0.2 0.1 0.3 0.1 0.4 -1 0-1.9-0.1-1.8-0.1 0 0.6 0.8 0.8 0.1 1.6 0.7-0.5 1.9-1.5 2.7-1.2 0 0.1 0.1 0.1 0.1 0.2l-0.1 0.1c0.2 0.1 0.4 0 0.5-0.1 0.3 0.1 0.4 0.2 0.7 0.2 0.1 0.5 1 0.3 1.4 0.3 0-0.7 0.5-0.6 0-1.2 0.1 0.1-0.1 0.1-0.4 0.1 -0.1 0-0.1 0-0.2 0.1 0 0 0 0 0-0.1 -0.3 0-0.6 0-1.1 0 0.3-0.3 0.7-0.6 1.2-0.2 0.2-0.4 0.5-0.9 0.6-1.1 0.6 1 1.7 1.5 1.8 2.1 1.3-0.4 3-0.2 3.9-1.5 0.4-0.2 0.4 0.4 0.6 0.6 -0.2 0.1-0.5 0.1-0.6 0.3 0.7-0.3 2.2-0.1 2.4-1 0.9 0.4-0.5 0.8 0.7 0.7l-0.2 0.3c2.5 1.5 4.1-2.3 6.8-0.4 -0.2-0.1-0.3-0.2-0.3-0.3 3.1 0.9 6.5-0.7 9.6 0.7 0.9 0.3 1-0.3 1.5-0.7l0.2 0.8 0.9-0.9c1.3-0.6 2.2 1.9 3.9 0.7l-0.2-0.5c0.6 0.1 1.9-0.3 1.8 0.3 0.1-0.1 0.2-0.5 0.4-0.3l0 0.4 1.5-0.6c1.1 0.3-0.2 1.6 1.5 1.7 0.6-0.1 1.8-1.1 1.5-1.4 -0.2 0-0.6-0.3-0.6-0.6l0.6-0.2c0-0.1 0-0.1 0-0.2l0.1 0 0-0.4c0.1-0.6 0.2-1.3-0.1-1.8l-0.3-4.4 0.2 0.1 -0.2-0.2L115 101c0.1 0 0.3 0.1 0.4 0.2 0.5-0.7-0.4-0.5 0.1-1.1 0.1-0.1 0.1 0 0.2 0l-0.4-0.6c0.2 0.1 0.7-0.2 0.6 0.2C116.4 98.6 115 98 115.7 97.6zM76.8 110.7C76.8 110.7 76.8 110.6 76.8 110.7c0 0 0 0.2-0.1 0.3 -0.3 0.1-0.4 0-0.4-0.2C76.4 110.8 76.5 110.7 76.8 110.7zM99.5 96.1c-0.3 0.4-0.9 0.6-1.6 0.6 -3.3-0.1-6.6-0.3-9.8-0.6 -3.2-0.2-6.5-0.4-9.8-0.4 -0.6 0-1-0.2-1.4-0.5 -0.3-0.3-0.6-0.7-0.7-1.1 -0.1-0.4-0.1-0.9 0-1.3 0.1-0.4 0.4-0.8 0.7-1.1 0.3-1.3 0.4-2.5 0.2-3.8 -0.1-1.3-0.3-2.5-0.4-3.8 -0.2-1.5-0.2-3.1-0.2-4.6 0.1-1.5 0.2-3 0.4-4.6 0.2-1.5 0.5-3.1 0.7-4.6 0.3-1.5 0.5-3.1 0.7-4.6 0.2-1.7 0.3-3.3 0.5-4.9 0.1-1.6 0.2-3.3 0.3-4.9 0-0.7 0.2-1.2 0.7-1.6 0.5-0.4 1-0.6 1.5-0.6s1 0.2 1.5 0.6c0.4 0.4 0.6 0.9 0.6 1.6 -0.1 1.7-0.2 3.5-0.3 5.1 -0.1 1.7-0.3 3.4-0.5 5.2 -0.2 1.6-0.4 3.2-0.7 4.8 -0.3 1.6-0.5 3.1-0.7 4.8 -0.2 1.5-0.3 3.1-0.3 4.6 0 1.5 0.1 3 0.3 4.6 0.1 1.1 0.2 2.1 0.3 3.2 0.1 1.1 0.1 2.1-0.1 3.2 2.7 0.1 5.5 0.2 8.2 0.4 2.7 0.2 5.5 0.4 8.2 0.5 0.7 0 1.2 0.3 1.6 0.8 0.3 0.5 0.5 1 0.5 1.6S99.9 95.7 99.5 96.1zM114.9 100l0-0.3c0 0.1 0.1 0.2 0.1 0.3C115 99.9 115 99.9 114.9 100z"></path>
    <path _ngcontent-c2="" class="logo__highlight logo__highlight--01" d="M238.3 30.1c-0.6-0.1-1.2-0.3-1.9-0.4l0.7-0.1c-0.5-0.4-1.4-0.7-2.4-1.1 -0.4-0.1-0.7-0.3-1.1-0.4 -0.3-0.1-0.6-0.3-0.9-0.4 -0.4 0.2-1-0.1-0.8 0.5 -2.7-3-6.7-1.3-9.1-3.8 0.4 0.1 0.9 0 0.7-0.1l-2.6-0.6c0 0.6 0.2 0.4 0.6 1.1 -0.4 0.2-1.2 0.2-1.8 0 1.3 0 0.3-0.9-0.1-1.3 0 0.2-0.2 0.3-0.2 0.5 -1-1.4-0.6 1-2.2-0.3l0.2-0.2c-0.7-0.1-1.5 0.1-2.2-0.3 -0.1-0.7 0.8 0 1-0.5 -1-0.3-2.4 0.5-3.1-0.5 0.5 0 1.1 0.2 1.6 0.2 -0.7-1.1-0.9-0.9-1.6-1.3l0.1 0 -1.6-0.9 0.4 0.4c-1.8 1.2-2.7-0.6-4.8-0.2 2-0.4 0.5-0.5 0.9-1.1 -0.4-0.4-0.9-0.8-0.7-0.9 -1 0.3-1.2-0.9-2.6-0.5 0-0.2-0.9-0.3-0.5-0.8 -1.1-0.2 0.1 0.5-0.1 0.7 -1.9 0.2-3.5-2.3-6.2-2.1 -2-0.3-2.7 0.3-4.4 0.1l-0.5-0.2c-0.2-0.4 0.9-0.5 0.9-0.5 -0.9-0.7-1.7-0.9-2.7-1 0.3-0.1 0.1-0.4-0.1-0.7 -0.8-0.2-0.8 0.6-1.7 0 0.3-0.2 0.6-0.5 1.1-0.6 -1-0.1-2 0-3-0.1 -0.1-0.5 0.8-0.4 1.2-0.5 -1.1-0.2-2.9-0.6-3.4-0.1L186 12c-0.1-0.2 0.2-0.5 0.5-0.5 1.1-0.2 1.2 0.7 1.2 0.9l-0.7-0.1c0.2 1.6 2.8 0.7 4.1 1.3l-0.7 0.6L180 10.6l-0.1 0c-0.2-1.1-0.1-2.3-2.3-2.3l-1.2 1.2 -0.7-0.4 1.2-0.5c-0.9-0.2-1.2 0.4-1.6 0.8 -0.2-0.2-0.5-0.4-0.8-0.4l-1.1 1.6c-0.3-0.4 0.4-1.1-0.7-1 -0.5 0.7 1 0.7 0 1.4 -0.9-0.2-0.8-0.7-1.5 0 -0.2-0.2-0.1-0.5 0.2-0.7 -0.6 0.6-1.9 0.8-2.1 1.6 -1-0.3-2.4 1-2.7 0 -0.1 0.3-1 1.3-1.7 1.6 0.8-1.7-2.6 0.8-2.7-0.6 -0.5 1.4-3.1 1.7-4.6 2.9 0.1-0.1 0.2-0.4 0.3-0.4 -0.9 0.2-1.3 0-2 0 0.2 1-1.1 1.7-1.7 2.5 -1.4-0.5 0.3-1.3-0.4-2 0.3 0.7-1.7 1.4-1.1 1.9 -1.1-0.2-0.8 0-1.5-0.6 0.3 1.2-0.7 0.5-1.2 1.4 -1.4-0.1-0.7-1-1.9-0.1 -0.8-0.1 0.3-1 0.3-1 -1.4 0.5-0.4 1.1-0.5 1.7 -1.6 0.8-1-0.4-1.7-0.6 -1 0.6-1.5 1.7-2.3 1.9 -0.1-0.1-0.3-0.1-0.2-0.4 -0.9 1.1-3.2 1.2-4.2 2.5 -0.1 0-0.2-0.1-0.2-0.2 0.4 0.4 0.5 0.8 0.6 1.1 -0.6 0.2-1 1-1.4 0.5 0.4-0.1 0.3-0.4 0.5-0.6l-0.6 0.5c-0.9-0.6 0.8-0.6 0.6-1.2 -1.2 0.7-2.4 1.9-3.5 2 -0.5-0.7 2.2-1.1 0.6-1.3l1.6-0.2c-1.6-0.8 0.9-0.2-0.6-1.2 -2.1 0.5-2.1 1.2-4.1 1.7 -0.3 0.6 0.4 0.6 0.1 1.2 -2.5 1.8-2.9-1.2-4.6 0.6 -0.3 0.7-0.2 1.8-1.9 1.8l0.2-1.1c-1 0.3-1.1 0.7-1.3 1.1 0 0.1-0.1 0.2-0.2 0.3 -0.1 0.1-0.2 0.2-0.4 0.3 -0.3 0.2-0.8 0.3-1.7 0.5 0.3-0.5 2.3-1.1 1.8-1.1 -1.3 0-1.6 0.3-1.8 0.6 -0.2 0.3-0.2 0.7-1 0.9 -0.3-0.2-0.7-0.3-1.1-0.5 -0.4 0.2-0.8 0.3-1.2 0.5 0.3 1.7 0.7 3.5 1 5.2l0.1 0.3 0.1 0.2 0.1 0.4 0.2 0.8c0.1 0.5 0.2 1 0.3 1.6 -0.3-0.1-0.6-0.5-0.8 0.1 0.8 3 0.6 6.5 0.5 9.4l0.9 1c0 0.3-0.3 0.5-0.4 0.3 -0.1 1.2 0.5 0 0.8 0.5 0.1 0.6-0.3 0.9-0.6 0.5 0.8 1.9 2 5.5 1.4 7.7l-0.3-0.4c-0.1 1.7 1.7 1.7 1.2 3.3l-0.2-0.3c0.1 3.6 1.2 7.5 0.4 10.3 1.1 0.4-0.1 3.6 1.4 3.6 -0.5 2.1-0.8 1.6-1 4.5 0 0.8 1 1 1.3 2l-0.8 0.1 0.9 1.2 -0.8 0.8 0.3 0.9c0-0.4 0.3-0.8 0.5-0.8 0.5 1.3-0.1 3.4-0.5 3.5l1 3.2c-0.2 0-0.4-0.3-0.6-0.7 0.6 1.2-0.9 0.2 0 1.6 0.1-0.2 0.5 0.1 0.6 0.1 -0.4 0.9-0.2 2.7 0.2 4l-0.6-0.2c0.1 2.4 0.8 5.1 1.1 7.8 0.1-1 1.1-0.9 1.2-0.1l-0.8 0.4c0.6 0.5 0.2-0.9 0.9 0.1 0 1-0.8 0.8-1.2 0.2l0.4 1.2c-0.2 0.1-0.4-0.2-0.7-0.2 0.3 0.2 0.1 0.8 0 1.4 0 1 0 2.3 0.5 2.8l-0.2 0.2c0 0.4 0.1 0.8 0.1 1 1 0.6 1.9 1 2.8 1.5 0.2 0.1 0.4 0.2 0.6 0.3l0.2 0.1 0.2 0.1c0.2 0.1 0.4 0.2 0.6 0.3 0.8 0.4 1.5 0.7 2.5 1.2 0.4-0.6 1.1 0 1.9-0.2 1.3 1 2.7 2.4 4.4 3.3 1.4 0.4 0.6-0.3 1.4-0.4 -0.2 0.6 1.5 1.5 0.4 1.4 2.1 1.1 2.7 1.4 5.6 2.4 -0.2-0.4-0.4-0.7-0.2-0.8 0.5 0.2 1 0.8 0.7 1.1l-0.2 0c3.4 0.8 5.9 5.4 8.9 5.5l-0.2 0 2.8 0.7c1.1 0.7-0.9 0-0.3 0.8 3.1 0.5 4.1 2.4 6.6 3 0.8 2.6 6 3.2 7.7 5.5l0.1-0.5c0.8-0.1 0.6 0.6 1 0.9 0.1-0.3-0.4-0.7 0-0.7l0.7 0.3 1.1 0.6c0.7 0.4 1.5 0.8 2.3 1.2 0.9-0.5 1.8-1 2.7-1.5l0.7-0.4 0.4-0.2 0.8-0.4c1.1-0.5 2.2-1 3.3-1.5 2.3-1 4.5-1.9 6.7-2.9 1.9-0.9-0.1-2.6 2.8-3l-0.3 1.1c3.3-2.9 7.7-4.2 11-7 -0.1 0.3 0 0.5-0.4 0.7 1.1 0.1 2.9-1.6 2.7-2 0.6-0.3 0.3 0.3 0.8 0.3 0.9-0.1 1.6-1.7 2.3-1.5 0.1 0 0 0.1-0.1 0.3 0.6-0.5 2.2-1.1 1.4-1.4 1.5-0.5 2.5-1.7 3.8-2 0.3-1.1 2.5-1 2.2-2.1 0.4 1 2.9-0.5 3.5-1.5 -0.1 0.5 0.9-0.1 0.8 0.5 1-0.6 1.8-1.3 1.3-1.7 0.4 0 0.7 0 1-0.1 0.1 0 0.3-0.1 0.4-0.2 0.1-0.1 0.4-0.2 0.6-0.4 0.9-0.6 1.6-1.2 2.3-1.7 0-1.4 0.1-2.3 0.9-3.1l0-0.3 0-0.2 0-0.3 0-0.6c0-0.4 0-0.8-0.1-1.2 0-0.8 0-1.6-0.1-2.4 0-1.6 0-3.1 0-4.7 1.1 0.2-0.3 3.3 0.9 3.4 -0.1-2.9-0.9-4.7-0.3-7.5 0.2-0.7 0.4 0.5 0.6 0.7 -0.1-2.9 0.7-5.5 0.4-8.1 0.1 0 0.2 0.3 0.2 0.6 0-0.5 0.3-1.1-0.2-1.1l0.1 0.5c-0.8 0.7-1.3-2.2-1.7-2.3 1.4 1 0.7-2.5 2.3-0.9 -0.1-0.3-0.2-0.8-0.6-0.7 0.2-0.5 0.4-0.6 0.7-0.1 -0.1-1.8-0.7-1.3-0.5-2.9 0.2 0 0.3 0.4 0.6 0.6 -0.4-0.9-0.8-1.8-0.4-3.1 0.1 0.1 0.3 0 0.3 0.4 0.2-2.4-0.8-4.2 0-6.7 1 0.9 0.5-0.8 1.4-0.9l-0.1-1.4 -0.5 0.5c0.2-1.2-0.4-2.4 0-3.4l0.3 1 0.1-2.3 -0.5 1.3c-0.3-1.3-1.2 0-0.7-1.6 0.1 0.3 0.2-1.2 0.8-1.8l0 0c-0.2-0.6-0.5-1.3-0.1-2.2 0.3-0.2 1 0.3 1.2 0.2 -0.7-0.7 0.1-2.9-0.6-3.7 0.2 0.3 0.6 0.3 0.8 0.3l-0.6-0.6c0.3-0.5 0.4-0.6 0.7-0.5 0.3-1.7-1.2 0.4-0.5-1.6 0 0.2 0.1 0.1 0.2 0.4 0.5-2 0.1-4 0.6-5.8 1-0.4 0 1.7 0.9 1.1 0.1-2.7-0.5-5.7 0-8.3l-0.2 0.5c-1.3-0.5 0.9-1.9 0.4-3.2 0.1 0.3 0.7 0.5 0.5 0.4 0.1-0.4 0.1-0.7 0.2-1.1 0-0.2 0-0.4 0-0.6 0-0.3 0-0.5 0-0.8C238.4 32.5 238.4 31.3 238.3 30.1zM121.9 37.3c-0.1-0.3-0.1-0.5-0.1-0.7C121.8 36.7 121.8 36.9 121.9 37.3 121.9 37.3 121.9 37.3 121.9 37.3zM122.2 40.2c0-0.4-0.1-0.8-0.1-1.3 0.2-0.1 0.5 0 0.5 0.2C122.5 39 122.4 39.7 122.2 40.2zM198.9 16.7l0.2 0.7 -1.1-0.4C198.1 16.9 198.3 16.8 198.9 16.7zM191.7 14.1c0.1 0.2 0.2 0.5 0 0.7l-1.3-0.5L191.7 14.1zM202.2 104L195 86.1h-30.2l-7.2 17.9h-13.3L180 24.2l35.5 79.8H202.2zM226.2 27.1l-0.9-0.3c0.1-0.2 0.5-0.3 1.1-0.2C226.3 26.7 226.3 26.9 226.2 27.1zM180 50.1l10.4 25h-20.8L180 50.1z"></path>
    <path _ngcontent-c2="" class="logo__highlight logo__highlight--02" d="M190.4 75.1H180v-25l0 0L190.4 75.1zM238.4 33.6c0 0.3 0 0.5 0 0.8 0 0.2 0 0.4 0 0.6 0 0.4-0.1 0.7-0.2 1.1 0.1 0.1-0.5-0.1-0.5-0.4 0.5 1.4-1.7 2.7-0.4 3.2l0.2-0.5c-0.5 2.6 0.1 5.6 0 8.3 -0.9 0.5 0.1-1.6-0.9-1.1 -0.5 1.8-0.1 3.8-0.6 5.8 -0.1-0.3-0.2-0.3-0.2-0.4 -0.7 2 0.8-0.1 0.5 1.6 -0.4-0.1-0.5-0.1-0.7 0.5l0.6 0.6c-0.1 0.1-0.6 0-0.8-0.3 0.7 0.8-0.1 3 0.6 3.7 -0.2 0.1-0.9-0.4-1.2-0.2 -0.3 0.9-0.1 1.5 0.1 2.2l0 0c-0.6 0.6-0.7 2.1-0.8 1.8 -0.4 1.6 0.4 0.3 0.7 1.6l0.5-1.3 -0.1 2.3 -0.3-1c-0.4 1 0.1 2.2 0 3.4l0.5-0.5 0.1 1.4c-0.9 0-0.4 1.8-1.4 0.9 -0.8 2.5 0.2 4.3 0 6.7 0.1-0.4-0.2-0.3-0.3-0.4 -0.4 1.4 0 2.2 0.4 3.1 -0.3-0.2-0.3-0.5-0.6-0.6 -0.2 1.6 0.4 1.1 0.5 2.9 -0.3-0.5-0.5-0.4-0.7 0.1 0.3 0 0.5 0.4 0.6 0.7 -1.7-1.6-1 1.9-2.3 0.9 0.4 0.1 0.9 3 1.7 2.3l-0.1-0.5c0.5 0 0.2 0.6 0.2 1.1 -0.1-0.3-0.1-0.6-0.2-0.6 0.3 2.6-0.6 5.2-0.4 8.1 -0.2-0.3-0.4-1.5-0.6-0.7 -0.6 2.8 0.2 4.6 0.3 7.5 -1.2 0 0.2-3.1-0.9-3.4 0 1.5-0.1 3.1 0 4.7 0 0.8 0 1.6 0.1 2.4 0 0.4 0 0.8 0.1 1.2l0 0.6 0 0.3 0 0.2 0 0.3c-0.8 0.8-0.9 1.7-0.9 3.1 -0.7 0.5-1.4 1.1-2.3 1.7 -0.2 0.1-0.5 0.3-0.6 0.4 -0.1 0.1-0.3 0.1-0.4 0.2 -0.3 0.1-0.6 0.1-1 0.1 0.5 0.4-0.4 1.1-1.3 1.7 0.1-0.6-0.9 0-0.8-0.5 -0.6 0.9-3 2.5-3.5 1.5 0.3 1.1-1.9 1-2.2 2.1 -1.3 0.3-2.2 1.5-3.8 2 0.7 0.3-0.9 0.9-1.4 1.4 0.1-0.1 0.2-0.2 0.1-0.3 -0.7-0.3-1.3 1.3-2.3 1.5 -0.5 0-0.2-0.6-0.8-0.3 0.2 0.4-1.6 2.1-2.7 2 0.4-0.2 0.2-0.4 0.4-0.7 -3.3 2.8-7.7 4-11 7l0.3-1.1c-2.9 0.4-0.9 2-2.8 3 -2.2 1-4.5 1.9-6.7 2.9 -1.1 0.5-2.2 1-3.3 1.5l-0.8 0.4 -0.4 0.2 -0.7 0.4c-0.9 0.5-1.8 1-2.7 1.5V86.1h15l7.2 17.9h13.3L180 24.2l0 0V10.6l10.2 3.6 0.7-0.6c-1.3-0.6-3.9 0.3-4.1-1.3l0.7 0.1c0-0.2-0.1-1.1-1.2-0.9 -0.3 0-0.5 0.3-0.5 0.5l-0.4-0.4c0.5-0.5 2.3-0.1 3.4 0.1 -0.4 0.1-1.3 0.1-1.2 0.5 1 0.1 2.1 0 3 0.1 -0.5 0.1-0.8 0.4-1.1 0.6 0.9 0.7 0.9-0.2 1.7 0 0.2 0.4 0.3 0.6 0.1 0.7 1 0.1 1.8 0.3 2.7 1 0 0-1.1 0.1-0.9 0.5l0.5 0.2c1.7 0.1 2.4-0.4 4.4-0.1 2.7-0.2 4.3 2.3 6.2 2.1 0.2-0.3-1-0.9 0.1-0.7 -0.4 0.5 0.5 0.6 0.5 0.8 1.4-0.4 1.6 0.8 2.6 0.5 -0.3 0.1 0.3 0.6 0.7 0.9 -0.4 0.7 1.2 0.7-0.9 1.1 2.1-0.5 2.9 1.3 4.8 0.2l-0.4-0.4 1.6 0.9 -0.1 0c0.7 0.4 0.9 0.2 1.6 1.3 -0.5 0-1.1-0.2-1.6-0.2 0.7 0.9 2.1 0.2 3.1 0.5 -0.2 0.5-1.1-0.2-1 0.5 0.7 0.3 1.4 0.2 2.2 0.3l-0.2 0.2c1.6 1.3 1.2-1.2 2.2 0.3 0-0.2 0.3-0.3 0.2-0.5 0.4 0.5 1.3 1.4 0.1 1.3 0.6 0.2 1.4 0.2 1.8 0 -0.4-0.6-0.6-0.4-0.6-1.1l2.6 0.6c0.3 0.1-0.3 0.2-0.7 0.1 2.4 2.6 6.4 0.8 9.1 3.8 -0.2-0.6 0.4-0.3 0.8-0.5 0.3 0.1 0.6 0.3 0.9 0.4 0.3 0.1 0.7 0.3 1.1 0.4 0.9 0.4 1.8 0.7 2.4 1.1l-0.7 0.1c0.7 0.2 1.3 0.3 1.9 0.4C238.4 31.3 238.4 32.5 238.4 33.6zM191.7 14.1l-1.3 0.2 1.3 0.5C191.9 14.6 191.8 14.3 191.7 14.1zM199 17.4l-0.2-0.7c-0.5 0.1-0.8 0.2-0.9 0.3L199 17.4zM226.3 26.5c-0.6-0.1-0.9 0-1.1 0.2l0.9 0.3C226.3 26.9 226.3 26.7 226.3 26.5z"></path>
    <path _ngcontent-c2="" class="logo__box logo__box--03" d="M295.2 42.4c-0.1-0.3-0.1-0.6-0.1-0.8l-0.6 0.3c0.1-0.3 0.1-0.6 0.3-0.6 -0.4-0.3-1 0.2-1.5-0.4 0.3-0.4-0.3-1.2 0.4-1.4 -0.3 1.3 0.8-0.1 0.9 0.9 -0.1-0.2-0.1-0.5 0-0.8 0.1 0 0.2 0 0.2 0.1 0.7-1.2-0.9-0.5-0.9-1.8 0.4 0.2 0.8-0.3 0.7-0.5 0 0.5-0.7 0.3-1.1-0.2 0.2-0.3 0.1-0.8 0-1 -0.1-0.3-0.2-0.4-0.2-0.7l-0.2 0.7c-0.4-0.2-0.4-0.7-0.5-1.4 0.3-0.2 0.2 0.6 0.4 0.3 -0.4-0.3-0.2-0.8 0-1.5 0.2-0.7 0.5-1.5 0.2-2 0.3-0.9 0.8-0.8 1-1.6 0 0 0 0 0 0 -1.1 0.3-1.3 0.1-1.7-0.1 -0.3-0.2-0.8-0.3-1.8-0.1 0.2 0.6 0.3 0.4-1.1 1l2.9-0.4c-0.8 0.3-1.6 0.6-2.2 0.9 0.7 0 1.8-0.4 2.2-0.3 -1.2 0.5-0.9 0.3-1 0.8 -0.1-0.4-0.7-0.3-1.3-0.1 -0.6 0.2-1.1 0.4-1.5 0.1l0.5-1.5c-2.3-0.7-2.8 0.8-4.5 0.4l0.5 0.3c-0.2 0.6-1 0.1-1.5 0.3 0-0.5-0.3-0.7-0.5-1 0 0.4-1.1 0-1.3 0.9l-0.7-0.6c-1.3-0.3-1.4 1.4-2.7 1.2 0.4-0.5-0.2-0.9 0.6-1.3 -0.4 0-0.8-0.1-0.8 0.2 -0.2-0.3-1.1 0.7-1.5 0.2 -0.2 0.2-0.2 0.7-0.7 0.7 0-0.1 0-0.2 0-0.2 0 0.2-0.7 0.3-0.3 0.9 -1.3-1.5-3.5 0.1-4.6-1.2 -0.9 0.2-2 0.3-2.8 0.4 0.1-0.1 0-0.2 0.2-0.2 -1.1-0.5-0.7 1.4-1.9 0.9 -0.6-0.8 0.7-0.4 0.3-0.7 -0.2-1.6-1.5 0.2-2.4-0.7l0.2-0.1c-0.6-0.5-1.6 0.6-2.6 0.5 0 0 0.1-0.1 0-0.2 -0.7 0.8-2.1 1.1-3.1 1.3 0.3-0.6 0.5-0.3 0.3-1 -0.5 0.1 0.1 1-0.8 1.2 -0.3-0.3-1-0.6-1-1.3l0.9 0c-0.4-0.9-1.1 0-1.6-0.1l0.1-0.4c-1.3 0.1-1.3 1.1-2.8 1l0.1 0.3c-0.8 1-0.6-0.5-1.4 0.2l-0.2-1c-0.3 0.1-0.6 0.4-1.3 0.6 -0.6 0.2-1.2 0.5-1.7 0.5 0.1-0.4 0.5-0.6 1.1-0.9 0.3-0.1 0.6-0.2 0.9-0.3 0.1-0.1 0.3-0.1 0.4-0.2 0.1-0.1 0.2-0.1 0.3-0.2 -0.2 0-0.9 0-1.5 0.1 -0.6 0.1-1.1 0.2-1.2 0.5 0.2-0.1 0.6-0.3 0.9-0.2 -0.7 0.8-1.4 1.1-2.6 1.1 -0.3-0.4-0.7-0.7-1.1-0.8 -0.3 0.2-0.4 1.2-0.5 2 -0.1 0.9-0.3 1.7-0.9 2.1 0.1 0.4 0.1 0.8 0.1 1.1 0 0.2 0 0.4 0 0.7 0 0.4-0.1 0.9-0.2 1.4 -0.2 0.9-0.5 1.9-0.5 2.9 1.5-0.6 0 0.6 1.5 0.6 0.1 0.5 0 0.7-0.1 0.7l0.1-0.1c0 0-0.1 0.1-0.1 0.1l0 0 -1 1.4c-0.5 0.3-0.3-0.5-0.6-0.5 -0.2 1.1-0.7 0.4-1.1 1.1 0.6-0.1 0.8 0.4 0.5 1l0.8-0.8c0.7 1.5-1.4 1.2-0.7 2.7l-0.4-0.5c0.2 0.8-0.2 2.8 1 3.7 -0.2 0.1-0.6 0.3-0.7-0.1 -0.3 1.8 1 4.2 0.2 5.5l-0.4-0.2c0.1 0.3 0.7 0.6 0.3 1 -0.2 0-0.4-0.2-0.4 0 0.1 0.2 0.6 1 0.3 1.4l-0.4-0.4c-0.6 1.8 0.8 2.8 1 4.3 -1.1-0.1-1.5 1.3-1.8 2l-0.2 0c-0.3 2.1 0.7 3.6 1 5.5 -1.3 1.1-0.8 4-1.6 5.9 0.2-0.3 0.8 0.1 0.9 0.5 -0.3 0.4 0.7 1.3-0.3 1.2l0-0.2c-1 0.3-0.8 1.2-0.9 1.9l1.3 0.2c-2 1.8 0.4 5-1.4 5.9 0.3 0.5 0.3 1 0.5 1.5l-0.7-0.1c-0.3 1.3-0.4 1.9-0.3 3.5l-0.5-0.4c-0.1 0.9 1.9 1.3 1.9 2.1l-1.1 0.2c-0.1 1.5-1.1 3-0.3 4.6 -0.2 0-0.5-0.1-0.5-0.4 -0.1 0.7-0.9 2.8 0.6 2.6 -0.5 0-0.5 0.3-0.4 0.9 0.1 0.9 0.3 1.8 0.5 2.4 -0.2 0-0.5 0-0.7 0 0.4 0.5 0.7 0.6 0.9 0.8 0.2 0.2 0.3 0.5 0.4 1.1 -0.1 0.3-0.5 0.6-0.4 0.3 -0.2 0.8 0.3 0.6 0.3 1 0.2 0 0.4 0 0.6 0.1l-0.9 0.4c1.1 0.1 1.3-0.1 2.3-0.6 0.4-0.1 0.9-0.1 1.2 0.1 0.4 0.2 0.7 0.5 0.6 0.8 0.3-0.4 1-0.8 1.6-0.6 0.1 0.2-0.2 0.4-0.3 0.4 0.5 0.1 0.8 0.2 1 0.1 0.3 0 0.5-0.1 0.7-0.2 0.5-0.2 0.9-0.3 1.3 0.1 0 0.2 0.1 0.3 0.1 0.4 -1.1-0.1-1.9-0.1-1.8-0.2 0 0.6 0.8 0.8 0.1 1.6 0.7-0.4 1.9-1.4 2.8-1.1 0 0.1 0.1 0.1 0.1 0.2l-0.1 0.1c0.2 0.1 0.4 0 0.5-0.1 0.3 0.1 0.4 0.2 0.7 0.2 0.1 0.5 1 0.3 1.4 0.4 0-0.7 0.6-0.6 0.1-1.2 0.1 0.1-0.1 0.1-0.4 0.1 -0.1 0-0.1 0-0.2 0.1 0 0 0 0 0-0.1 -0.3 0-0.6 0-1.1 0 0.4-0.3 0.7-0.6 1.2-0.2 0.2-0.4 0.5-0.9 0.7-1.1 0.5 1 1.6 1.6 1.8 2.2 1.3-0.3 3.1-0.1 4-1.4 0.4-0.1 0.4 0.4 0.5 0.6 -0.2 0.1-0.5 0.1-0.6 0.3 0.8-0.3 2.2 0 2.4-0.9 0.9 0.5-0.6 0.8 0.7 0.7l-0.2 0.3c2.4 1.6 4.2-2.1 6.9-0.1 -0.2-0.1-0.3-0.2-0.3-0.3 3.1 1 6.6-0.5 9.7 1 0.9 0.3 1-0.3 1.6-0.7l0.2 0.8 1-0.8c1.4-0.6 2.2 2 3.9 0.8l-0.2-0.5c0.6 0.1 1.9-0.2 1.8 0.4 0.1-0.1 0.2-0.5 0.4-0.2l0 0.4 1.5-0.6c1.1 0.3-0.3 1.5 1.4 1.7 0.6-0.1 1.8-1.1 1.6-1.3 -0.2 0-0.6-0.3-0.6-0.7l0.6-0.2c0-0.1 0-0.1 0-0.2l0.1 0 0-0.5c0.1-0.5 0.2-1.1 0-1.6l-0.1-4.7 0.2 0.1 -0.2-0.2 0-0.9c0.1 0 0.3 0.1 0.3 0.3 0.5-0.6-0.4-0.6 0.2-1.1 0.1-0.1 0.1 0 0.2 0l-0.3-0.6c0.2 0.1 0.7-0.1 0.6 0.3 0.6-1.1-0.8-1.8 0-2.2l0.1 0.1c-0.3-1.1-0.6-0.7-1.1-0.8l0-0.7 1.3-0.5 -0.8-0.1c0-0.2 0.1-0.5 0.4-0.4 -0.5-0.6-0.3 0.1-0.8-0.2 0.7-0.8-0.3-2.1 0.9-2.3 -0.6-0.3-0.4 0.7-0.8-0.1 1.3-0.2-0.2-0.9 0.4-1.6 0.7 0.2 0.3 0.9 0.9 0.2 -1.1-0.4 0.2-1.4 0-1.9 -0.9 0-0.4-1.3-0.7-2.3 0.3 0.1 0.5-1.9 0.8-2.8l0.2 0c-0.9-0.2-0.8-1.1-0.9-1.8 0.5 0 0.8 0.1 1 0.5l0-0.6c-0.3-0.1-0.5-0.3-0.6-0.8l0.7 0.2c0-0.9-0.8-1.7-0.4-2.8 -0.4 0-1.1 0.4-1.6 0.3l0-0.6c0.2 0 0.4 0.1 0.5 0.2 0-0.1-0.3-0.4-0.1-0.6l0.6 0.5c0.2-0.5-0.5-0.3-0.4-0.7 0.5 0 0.3-0.3 0.7-0.2 0 0.1-0.2 0.4 0 0.5 0.1-0.5 0.4-1 0.7-1.2 -0.3 0-0.7 0-0.7-0.3 0-0.9 0.6-0.3 0.8-0.8 -0.3-0.2 0-0.8-0.7-0.8 0-0.3 0.3-0.3 0.5-0.4 -0.3-0.4-0.1-2.1-0.9-1.6l0 0.1c0 0 0 0 0-0.1 -0.7-1.5 0.4-3 0.1-4.5l0.2 0c-0.3-0.9-0.2-1.9-0.7-2.5 0-0.3 0.4-0.6 0.7-0.5 -0.2-0.7-0.5-0.7-0.1-1.7 0.4 0.7 0.4-0.2 0.3 0.7 0.2-0.9 0.6-1.1-0.1-2 0.6 0.3 0.8-0.7 0.6-1.1l-0.4 0.6c-0.1-0.5 0-0.9 0-1.3l0.8 0.2c1-1.8-1.7-3.2-0.1-4.5 -0.6-0.5-0.4 1-1.1 0.6 0.1-0.8 1.3-1.7 1.3-1.9 0.4-1.1-1.2-1-0.9-2.2 -0.3 0.2-1.1 0.3-1.4-0.6 0.1-0.8 1.2-1 1.5-0.5 0 0.2-0.1 0.3-0.2 0.3 0.1 0.3 0.2 0.6 0.6 0.3l-0.3-0.1c0.3-0.4 0.3-1.5 0.7-1.3 -0.3-0.6-0.5-0.3-0.6 0.2 0.4-1 0-1.6 0.3-2.7 -0.2 0.2-0.5 0.3-0.5 0.2 0.3-1.6-0.6-0.7-0.7-1.7 0.4-0.6 1.1 0.2 0.7-0.9 0.3-0.7 0.8-0.1 1 0.1 -0.6-1 0.4-1.8 0.5-2.4L295.2 42.4zM253 107.5C253 107.5 253 107.5 253 107.5c0 0 0 0.2-0.1 0.3 -0.3 0.1-0.4-0.1-0.4-0.2C252.6 107.6 252.8 107.6 253 107.5zM283.3 53.5c-0.9 1.6-1.9 3.3-2.8 5 -0.9 1.7-1.9 3.3-2.9 5 -1 1.6-2.1 3.2-3.2 4.7 -1.1 1.5-2.4 2.9-3.8 4.2 -0.1 3.4-0.2 6.7-0.3 10 -0.1 3.3 0 6.6 0.3 10 0 0.6-0.2 1.1-0.7 1.5s-1 0.6-1.5 0.6c-0.6 0-1.1-0.2-1.5-0.6s-0.6-0.9-0.7-1.5c-0.2-3-0.3-6-0.3-9 0-3 0.1-6 0.2-9 -0.3-0.2-0.6-0.5-0.8-0.8 -1.2-1.4-2.2-2.8-3-4.3 -0.7-1.5-1.4-3.1-2.1-4.8 -0.7-1.7-1.5-3.2-2.5-4.5s-2.3-2.5-4-3.3c-0.6-0.3-1-0.8-1-1.4 -0.1-0.6 0-1.1 0.3-1.6s0.7-0.8 1.2-1.1c0.5-0.2 1.1-0.2 1.7 0.2 1.9 1 3.5 2.3 4.8 3.9 1.3 1.6 2.3 3.3 3.2 5.3 0.5 1.3 1.1 2.6 1.6 3.8s1.2 2.4 2 3.5c1.3-1.2 2.6-2.5 3.7-3.9 1.1-1.4 2.1-2.9 3.1-4.5 0.9-1.6 1.8-3.2 2.7-4.8 0.9-1.6 1.7-3.2 2.6-4.7 0.4-0.6 0.8-0.9 1.4-1s1.1 0 1.6 0.3c0.5 0.3 0.8 0.7 1 1.2S283.7 52.8 283.3 53.5zM292.3 98c0 0-0.1 0.1-0.1 0.1l0-0.3C292.2 97.8 292.2 97.9 292.3 98z"></path>
    <path _ngcontent-c2="" class="logo__box logo__box--01" d="M354.9 46.7c-0.1-0.3-0.1-0.6-0.1-0.8l-0.6 0.3c0.1-0.3 0.1-0.5 0.4-0.5 -0.4-0.3-1 0.2-1.5-0.4 0.1-0.1 0.1-0.2 0.1-0.4 0-0.2 0-0.3 0-0.5 0-0.4 0-0.7 0.4-0.9 -0.3 1.8 0.6 0.2 0.8 1 0 0 0-0.1 0-0.1 0-0.2 0-0.5 0.1-0.7 0.1-0.1 0.2 0.1 0.2 0.2 0.8-2.4-0.9-0.9-0.8-2.8 0.4 0 0.9-1 0.8-1.3 0 0.9-0.8 0.8-1.1 0.4 0.2-1 0.1-1.2-0.1-1.3 -0.2 0.1-0.5 0.1-0.7 0.1l0.4 0.1 0 0.2c-0.1 0-0.1 0-0.2 0 -0.5 0.2-1 0.2-1.7 0.2 0.2-0.3 0.9-0.2 0.7-0.3 -0.8 0.3-1 0.1-1.4-0.1 -0.4-0.3-0.9-0.5-1.7-0.3 -0.5-0.3 0.2-0.8-0.4-1.1 -0.4 0.1-0.8 0.1-1 0.1 -0.2 0-0.3-0.1-0.4-0.2 -0.3-0.2-0.5-0.4-1-0.2 0.3 0.6 0.3 0.5-0.4 1l1.7-0.3 -1.1 0.8c0.5 0 1-0.3 1.4-0.2 -0.6 0.4-0.5 0.3-0.3 0.8 -0.6-0.9-1.4 0.4-2.1-0.2l0.1-1.5c-1.2-0.7-2.2 0.6-3.7 0.2l0.5 0.3c-0.2 0.6-1 0-1.5 0.2 0.1-0.5-0.2-0.7-0.4-1 0 0.4-1.1-0.1-1.3 0.9l-0.7-0.7c-1.2-0.3-1.5 1.3-2.7 1.1 0.4-0.5-0.1-0.9 0.7-1.2 -0.4 0-0.8-0.1-0.8 0.2 -0.2-0.3-1.1 0.6-1.5 0.1 -0.2 0.2-0.3 0.7-0.7 0.6 0-0.1 0-0.2 0-0.2 0 0.2-0.7 0.3-0.4 0.9 -1.2-1.6-3.5-0.1-4.5-1.5 -0.9 0.1-1.9 0.2-2.7 0.2 0.1-0.1 0-0.2 0.2-0.2 -1.1-0.5-0.8 1.4-2 0.8 -0.6-0.8 0.7-0.4 0.3-0.7 -0.1-1.6-1.5 0.1-2.3-0.9l0.2-0.1c-0.6-0.6-1.6 0.5-2.6 0.3 0 0 0.1-0.1 0-0.2 -0.8 0.8-2.1 1-3.2 1.1 0.3-0.6 0.5-0.3 0.3-1 -0.5 0.1 0.1 1-0.8 1.2 -0.3-0.4-0.9-0.7-1-1.4l0.9 0c-0.4-0.9-1.1 0-1.5-0.2l0.1-0.4c-1.3 0.1-1.4 1-2.8 0.9l0.1 0.3c-0.4 0.5-0.6 0.3-0.7 0.1 -0.1-0.1-0.1-0.2-0.3-0.2 -0.1 0-0.3 0-0.5 0.2 -0.1-0.3-0.2-0.7-0.4-1 -0.4 0.1-1 0.3-1.5 0.5 -0.6 0.2-1.1 0.4-1.5 0.5 0-0.7 1.4-1 2.3-1.4 -0.8-0.1-2.7-0.1-2.7 0.4 0.2-0.1 0.5-0.3 0.8-0.1 -0.3 0.5-0.7 0.8-1.3 1 0.1 0.4 0.1 0.8 0 1.2 -0.9-0.9-1.1-0.1-1.2 1 -0.1 0.5-0.1 1.1-0.3 1.7 -0.1 0.3-0.2 0.5-0.3 0.7 -0.1 0.2-0.3 0.3-0.5 0.4 0.6 1.8-0.5 3.5-0.6 5.5 1.5-0.6 0 0.6 1.5 0.6 0.1 0.5 0 0.7-0.1 0.7l0.1-0.1c0 0-0.1 0.1-0.1 0.1l0 0 -1 1.4c-0.5 0.3-0.3-0.5-0.6-0.5 -0.2 1-0.7 0.4-1.1 1.1 0.6-0.1 0.8 0.4 0.5 1l0.8-0.8c0.7 1.5-1.4 1.2-0.7 2.7l-0.4-0.5c0.2 0.8-0.2 2.8 1 3.6 -0.2 0.1-0.6 0.3-0.7-0.1 -0.3 1.8 1 4.1 0.2 5.5l-0.4-0.2c0.1 0.3 0.7 0.6 0.3 1 -0.2 0-0.4-0.2-0.4 0 0.1 0.2 0.6 0.9 0.3 1.4l-0.4-0.4c-0.6 1.7 0.8 2.8 1 4.3 -1.1-0.1-1.5 1.3-1.8 2l-0.2 0c-0.3 2 0.7 3.6 1 5.5 -1.3 1.1-0.8 4-1.6 5.8 0.2-0.3 0.8 0.1 0.9 0.5 -0.3 0.4 0.7 1.3-0.3 1.1l0-0.2c-1 0.3-0.8 1.2-0.9 1.9l1.3 0.2c-2 1.7 0.4 5-1.4 5.9 0.3 0.5 0.3 1 0.5 1.5l-0.7-0.1c-0.3 1.2-0.4 1.9-0.3 3.4l-0.5-0.4c-0.1 0.9 1.9 1.2 1.9 2l-1.1 0.2c-0.1 1.5-1.1 3-0.3 4.6 -0.2 0-0.5-0.1-0.5-0.4 -0.1 0.7-0.9 2.7 0.6 2.6 -0.5 0-0.5 0.4-0.4 0.9 0.1 0.3 0.1 0.9 0.2 1.2 0.1 0.4 0.2 0.8 0.3 1.1 -0.2 0-0.5 0-0.7 0 0.4 0.5 0.7 0.6 0.9 0.9 0.2 0.2 0.3 0.5 0.4 1.1 -0.1 0.3-0.5 0.6-0.4 0.3 -0.3 1 0.6 0.3 0.3 1.6 0 0 0.1 0 0.1 0l-0.3 0.1c-0.1 0-0.2 0-0.3-0.1 0 0.2 0 0.3 0 0.4 0.8 0 1.1-0.3 2-0.7 0.4-0.1 0.9-0.1 1.2 0.1 0.3 0.2 0.6 0.4 0.6 0.7 0.4-0.4 1.1-0.9 1.7-0.7 0 0.2-0.2 0.4-0.4 0.5 0.5 0.1 0.9 0.1 1.3 0.1 0.3 0 0.5-0.1 0.8-0.2 0.4-0.2 0.8-0.3 1.3 0 0 0.2 0.1 0.3 0.2 0.4 -1 0-1.9-0.1-1.8-0.1 0 0.6 0.8 0.7 0.2 1.6 0.7-0.5 1.8-1.5 2.7-1.2 0 0.1 0.1 0.1 0.1 0.2l-0.1 0.1c0.2 0.1 0.4 0 0.5-0.1 0.3 0.1 0.4 0.2 0.7 0.2 0.1 0.5 1 0.3 1.4 0.3 0-0.7 0.5-0.6 0-1.2 0.1 0.1-0.1 0.1-0.4 0.1 -0.1 0-0.1 0-0.2 0.1 0 0 0 0 0-0.1 -0.3 0-0.6 0-1 0 0.3-0.4 0.7-0.7 1.1-0.3 0.2-0.4 0.5-0.9 0.6-1.1 0.6 1 1.7 1.5 1.9 2.1 1.3-0.4 3-0.3 3.8-1.6 0.4-0.2 0.4 0.4 0.6 0.6 -0.2 0.1-0.5 0.1-0.6 0.3 0.7-0.3 2.2-0.1 2.3-1 0.9 0.4-0.5 0.8 0.8 0.7l-0.2 0.3c2.5 1.5 4.1-2.3 6.8-0.5 -0.2-0.1-0.3-0.2-0.3-0.3 3.2 0.8 6.5-0.8 9.6 0.5 0.9 0.3 1-0.3 1.5-0.8l0.2 0.7 0.9-0.9c1.3-0.6 2.3 1.8 3.9 0.6l-0.2-0.5c0.6 0.1 1.9-0.3 1.8 0.3 0.1-0.1 0.2-0.5 0.4-0.3l0 0.4 1.5-0.7c1.1 0.3-0.2 1.6 1.5 1.6 0.6-0.2 1.8-1.1 1.5-1.4 -0.2 0-0.6-0.2-0.7-0.6l0.6-0.2c0-0.1 0-0.1 0-0.2l0.1 0 0-1c0 0 0-0.1 0-0.1l0.1-5.5 0.2 0.1 -0.2-0.2 0-0.8c0.1 0 0.3 0.1 0.3 0.3 0.5-0.6-0.4-0.6 0.2-1.1 0.1-0.1 0.1 0 0.2 0l-0.3-0.6c0.2 0.1 0.7-0.1 0.6 0.3 0.6-1.1-0.7-1.8 0.1-2.2l0.1 0.1c-0.2-1.1-0.5-0.7-1-0.8l0-0.7 1.3-0.5 -0.8-0.2c0-0.2 0.1-0.5 0.4-0.4 -0.5-0.6-0.3 0.1-0.8-0.3 0.7-0.7-0.3-2.1 0.9-2.2 -0.6-0.3-0.5 0.7-0.8-0.1 1.3-0.2-0.2-0.9 0.4-1.6 0.7 0.2 0.3 0.9 0.9 0.2 -1.1-0.4 0.3-1.3 0.1-1.9 -0.9 0-0.3-1.3-0.6-2.3 0.3 0.1 0.5-1.8 0.9-2.7l0.2 0c-0.9-0.2-0.7-1.1-0.9-1.8 0.5 0 0.8 0.2 1 0.5l0-0.6c-0.3-0.2-0.4-0.4-0.5-0.8l0.7 0.2c0-0.9-0.8-1.7-0.3-2.8 -0.4-0.1-1.1 0.3-1.6 0.2l0-0.6c0.2 0 0.4 0.1 0.5 0.3 0-0.1-0.3-0.4-0.1-0.6l0.6 0.5c0.3-0.5-0.5-0.3-0.4-0.7 0.5 0 0.4-0.3 0.7-0.2 0 0.1-0.2 0.3 0 0.5 0.1-0.4 0.4-1 0.8-1.2 -0.3 0-0.7 0-0.7-0.3 0-0.9 0.6-0.3 0.9-0.8 -0.3-0.2 0-0.8-0.7-0.8 0-0.2 0.4-0.3 0.6-0.4 -0.3-0.4 0-2.1-0.8-1.6l-0.1 0.1c0 0 0 0 0-0.1 -0.7-1.5 0.5-3 0.2-4.4l0.2 0c-0.3-0.9-0.1-1.9-0.6-2.5 0-0.3 0.5-0.6 0.8-0.5 -0.2-0.7-0.4-0.7 0-1.7 0.4 0.7 0.4-0.2 0.3 0.7 0.2-0.8 0.6-1 0-2 0.6 0.3 0.8-0.6 0.6-1l-0.5 0.6c-0.1-0.5 0-0.9 0-1.3l0.8 0.2c1-1.7-1.6-3.2 0.1-4.5 -0.6-0.5-0.4 0.9-1.1 0.5 0.1-0.8 1.3-1.6 1.3-1.9 0.5-1.1-1.2-1.1-0.8-2.2 -0.3 0.1-1.1 0.3-1.3-0.6 0.1-0.8 1.3-1 1.5-0.4 0 0.2-0.1 0.3-0.2 0.3 0.1 0.3 0.2 0.6 0.5 0.3l-0.3-0.1c0.3-0.4 0.3-1.5 0.8-1.2 -0.3-0.6-0.5-0.3-0.6 0.2 0.5-1 0.1-1.6 0.4-2.7 -0.2 0.2-0.5 0.3-0.5 0.1 0.4-1.5-0.5-0.7-0.6-1.8 0.5-0.6 1.1 0.2 0.7-0.8 0.3-0.6 0.8-0.1 1 0.1 -0.5-1 0.4-1.8 0.5-2.3L354.9 46.7zM311 113C311 113 311 112.9 311 113c0 0 0 0.2-0.1 0.3 -0.3 0.1-0.4 0-0.4-0.2C310.6 113.1 310.8 113.1 311 113zM341.8 83.8c-0.1 1.6-0.1 3.2-0.1 4.7 0 1.6 0 3.1-0.1 4.7 0 0.7-0.2 1.3-0.7 1.6 -0.5 0.4-1 0.5-1.5 0.5s-1-0.2-1.5-0.5c-0.4-0.4-0.7-0.9-0.7-1.6 0-0.7 0.1-1.5 0.1-2.2s0-1.5 0.1-2.2c-1.1 1.7-2.2 3.3-3.6 4.7 -0.9 1-1.9 1.8-3.1 2.5s-2.4 1.2-3.6 1.5 -2.5 0.4-3.9 0.2 -2.5-0.6-3.7-1.4c-1.1-0.7-2.1-1.6-3-2.6 -0.9-1-1.6-2.2-2.3-3.4 -0.7-1.2-1.2-2.5-1.6-3.8 -0.4-1.3-0.8-2.6-1-3.9 -0.2-1.2-0.3-2.5-0.4-3.7 0-1.3 0.1-2.5 0.5-3.7 0.3-1 0.7-1.9 1.2-2.8 0.5-0.9 1-1.7 1.6-2.5 1.4-2 3-3.9 4.8-5.6s3.7-3.3 5.7-4.7c0.9-0.6 1.9-1.2 3-1.7 1-0.5 2.1-0.8 3.2-1.1 1.1-0.2 2.2-0.3 3.3-0.2 1.1 0.1 2.2 0.4 3.3 0.9 0.5 0.3 0.9 0.7 1 1.3 0.1 0.6 0.1 1.2-0.2 1.7 -0.3 0.6-0.8 0.9-1.3 1 -0.6 0.1-1.1 0-1.7-0.2 -0.6-0.3-1.4-0.4-2.3-0.3 -0.4 0-0.8 0.1-1.3 0.2 -0.5 0.1-1 0.3-1.6 0.5 -1.1 0.4-2.1 1-3.1 1.7 -1 0.7-2 1.5-2.9 2.2 -1.6 1.4-3.1 2.9-4.5 4.6 -1.4 1.6-2.6 3.4-3.5 5.3 -0.1 0.3-0.2 0.6-0.3 1.2 -0.1 0.5-0.2 1-0.2 1.3 -0.1 1.1 0 2.1 0.2 3.2 0.2 1.2 0.5 2.4 0.9 3.6 0.4 1.2 0.9 2.3 1.5 3.4 0.6 1 1.3 2 2 3 0.8 1 1.8 1.6 2.9 1.9 1.2 0.3 2.5 0.3 3.8-0.2 0.3-0.1 0.6-0.2 0.8-0.4 0.3-0.1 0.5-0.3 0.8-0.4 0.1-0.1 0.2-0.1 0.3-0.2 0.1-0.1 0.2-0.1 0.3-0.2 0.8-0.7 1.6-1.5 2.2-2.3 0.7-0.8 1.3-1.7 1.9-2.5 0.3-0.5 0.6-1 0.9-1.6s0.6-1.1 0.7-1.6c0.2-0.5 0.3-0.9 0.4-1.3s0.2-0.8 0.2-1.2c-0.4-0.1-0.7-0.2-1.1-0.2s-0.7 0-1.1 0c-1 0-2 0.1-3 0.2 -1 0.1-2 0.2-3.1 0.2 -0.7 0-1.2-0.2-1.6-0.7 -0.3-0.5-0.5-1-0.5-1.5s0.2-1.1 0.5-1.5c0.3-0.4 0.9-0.7 1.6-0.7 1 0 2-0.1 3-0.2 1-0.1 2-0.2 3-0.2 1 0 1.9 0 2.9 0.1 0.9 0.1 1.9 0.4 2.8 0.8 0.9 0.4 1.7 1 2.4 2 0.4 0.6 0.6 1.3 0.5 2.1C341.8 82.3 341.8 83.1 341.8 83.8zM350.1 101.5c0 0-0.1 0.1-0.1 0.1l0-0.3C350 101.4 350 101.4 350.1 101.5z"></path>
    <path _ngcontent-c2="" class="logo__box logo__box--02" d="M390.8 73.1c0.5 0.9 0.7 1.8 0.7 2.9 -0.1 0.1-0.1 0.2-0.2 0.3 -0.1 0.1-0.1 0.2-0.2 0.3 -0.2 0.4-0.4 0.7-0.6 1 -0.2 0.3-0.4 0.5-0.6 0.8 -0.2 0.2-0.4 0.5-0.6 0.7 -0.2 0.3-0.5 0.6-0.7 0.9 -0.7 0.7-1.3 1.5-2 2.2 -0.7 0.7-1.4 1.4-2.1 2.1 -0.7 0.6-1.4 1.2-2.1 1.7 -0.7 0.5-1.5 1-2.4 1.5 -0.3 0.1-0.6 0.3-0.8 0.4 -0.2 0.1-0.6 0.2-1 0.3 0 0-0.2 0-0.5 0 0-0.4 0.1-0.8 0.1-1.2 0-0.4 0.1-0.8 0.1-1.2 0.3-2.5 0.6-5.1 1-7.5 0.4-2.5 0.7-5 0.8-7.5 0-0.2 0-0.4 0-0.6 0-0.2 0-0.5 0.1-0.9 0.1-0.3 0.1-0.5 0.2-0.6 0-0.2 0.1-0.5 0.2-1 0.1-0.1 0.2-0.3 0.4-0.3 0.4 0.1 0.6 0.1 0.8 0.2 0.7 0.2 1.4 0.4 2.1 0.6s1.3 0.5 2 0.8c1.1 0.4 2.2 1 3.1 1.7C389.4 71.1 390.2 72 390.8 73.1zM406.5 110.6c0.1-0.4-0.4-0.1-0.6-0.2l0.3 0.6c0-0.1-0.1-0.1-0.2 0 -0.5 0.6 0.3 0.5-0.1 1.1 -0.1-0.2-0.2-0.2-0.3-0.2l0 0.8 0.2 0.2 -0.2-0.1 0.3 5.4c0 0.1 0 0.2 0 0.3l0.1 1 -0.1 0c0 0.1 0 0.1 0 0.2l-0.5 0.2c0 0.4 0.5 0.6 0.7 0.6 0.3 0.2-0.8 1.3-1.4 1.5 -1.7 0-0.4-1.3-1.6-1.5l-1.4 0.8 0-0.4c-0.3-0.2-0.4 0.2-0.4 0.3 0.1-0.6-1.2-0.1-1.8-0.1l0.3 0.5c-1.6 1.3-2.7-1.1-4-0.3l-0.9 0.9 -0.2-0.7c-0.5 0.5-0.6 1.1-1.5 0.9 -3.2-1.1-6.5 0.8-9.7 0.2 0.1 0.2 0.2 0.2 0.4 0.3 -2.9-1.7-4.2 2.2-6.8 1l0.2-0.3c-1.3 0.2 0.2-0.3-0.8-0.6 -0.1 0.9-1.6 0.8-2.3 1.2 0.1-0.2 0.4-0.2 0.6-0.3 -0.2-0.2-0.2-0.7-0.6-0.5 -0.7 1.4-2.5 1.4-3.7 1.9 -0.2-0.6-1.4-1-2-2 -0.1 0.2-0.3 0.7-0.5 1.2 -0.5-0.4-0.8 0-1.1 0.4 0.4 0 0.8-0.1 1.1-0.1 0 0 0 0 0 0.1 0 0 0.1-0.1 0.2-0.1 0.3-0.1 0.4-0.1 0.4-0.1 0.6 0.5 0 0.5 0.1 1.2 -0.4 0-1.3 0.3-1.4-0.2 -0.3 0-0.4-0.1-0.7-0.1 -0.2 0.1-0.5 0.2-0.8 0.2l0.1-0.1c0-0.1-0.1-0.2-0.2-0.2 -0.7-0.1-1.4 0.1-2.4 0.5 -0.9 0.4-2 0.8-2.8 1.1 1-0.5 1-0.8 0.9-1 -0.1-0.2-0.3-0.4 0-0.7 -0.2 0.1 1.1 0 2.7-0.1 -0.1-0.1-0.1-0.2-0.1-0.4 -0.5-0.3-1-0.1-1.7 0.1 -0.7 0.2-1.6 0.5-2.3 0.4 0-0.1 0-0.2 0.1-0.3 0 0 0.1 0.1 0.2 0 0.1-0.1 0.2-0.2 0.3-0.3l0 0c0.2-0.7-0.3-0.8-0.7-0.7 0.3-0.4 0.6-1 0.8-1.5 0.2-0.5 0.2-1 0.1-1.3 -0.5-0.4-0.7-0.3-0.7-1.4 0.1 0.2 0.3 0.3 0.4 0.4 0.2-0.7 0-0.9-0.1-1.1 -0.1-0.2-0.3-0.4-0.2-0.7 0 0.2 0.3 0.2 0.4 0 -0.2-1-0.5-1-1.3-1.7l0.7 0.1c-0.4-0.8-1.2-2.4-0.3-2.4 -1.4 0.2-0.7-1.8-0.7-2.6 0 0.2 0.3 0.3 0.5 0.3 -0.9-1.5 0-3.1 0.1-4.6l1.1-0.2c0-0.8-2.1-1.1-2-2l0.5 0.3c-0.1-1.6 0-2.2 0.2-3.5l0.7 0c-0.3-0.5-0.3-1-0.6-1.5 1.7-1-0.8-4.1 1.1-6l-1.3-0.1c0-0.7-0.2-1.7 0.8-2l0 0.2c1 0.1 0-0.7 0.3-1.2 -0.1-0.3-0.7-0.7-1-0.4 0.7-1.9 0.1-4.8 1.3-5.9 -0.4-1.9-1.4-3.4-1.2-5.5l0.2 0c0.2-0.7 0.6-2.1 1.7-2.1 -0.2-1.5-1.7-2.5-1.2-4.3l0.4 0.4c0.2-0.4-0.3-1.2-0.4-1.4 0-0.2 0.2 0 0.4 0 0.4-0.4-0.2-0.7-0.3-1l0.4 0.1c0.8-1.4-0.7-3.7-0.4-5.5 0.1 0.3 0.5 0.2 0.7 0 -1.2-0.8-0.9-2.8-1.1-3.6l0.5 0.5c-0.8-1.5 1.3-1.3 0.5-2.8l-0.7 0.8c0.2-0.6 0-1.1-0.5-1 0.4-0.7 0.9-0.1 1.1-1.1 0.3 0 0.2 0.8 0.7 0.4l0.9-1.4 0 0c0 0 0-0.1 0.1-0.1l-0.1 0.1c0.1 0 0.1-0.2 0-0.7 -1.5 0.1-0.1-1.2-1.5-0.5 -0.1-2.1 1-3.8 0.3-5.6 0.7-0.4 0.8-1 0.9-2.4 0.1-1.1 0.2-2 1.2-1.4 0-0.8-0.1-1.5-0.4-2.5 0.2-0.2 0.3-0.4 0.4-0.7 -0.4-0.1-0.6 0.1-0.8 0.2 -0.1-0.5 1.8-0.6 2.6-0.7 -0.8 0.4-1.9 0.8-1.9 1.4 0.1 0.2 0.1 0.3 0.2 0.4 0-0.1 0-0.2 0-0.2 0.4-0.1 0.9-0.4 1.3-0.6 0.5-0.2 1-0.5 1.3-0.6 0.2 0.3 0.4 0.6 0.6 1 0.8-0.8 1 0.8 1.6-0.2l-0.2-0.3c1.4 0 1.4-1 2.7-1.1l0 0.4c0.5 0.1 1.1-0.8 1.6 0.1l-0.9 0.1c0.1 0.7 0.8 1 1.1 1.3 0.9-0.2 0.3-1.1 0.7-1.2 0.2 0.6 0.1 0.3-0.2 1 1-0.3 2.4-0.6 3.1-1.5 0 0.1 0 0.2 0 0.2 1.1 0.1 1.9-1.1 2.6-0.6l-0.2 0.1c0.9 0.9 2.2-1 2.4 0.6 0.4 0.3-0.9 0-0.2 0.7 1.3 0.5 0.8-1.4 1.9-1 -0.2 0-0.1 0.1-0.1 0.2 0.8-0.1 1.9-0.3 2.7-0.5 1.1 1.3 3.3-0.5 4.6 1 -0.4-0.5 0.3-0.6 0.3-0.9 0 0 0 0.1 0 0.2 0.5 0 0.5-0.5 0.7-0.7 0.4 0.4 1.2-0.6 1.5-0.3 0-0.3 0.4-0.3 0.8-0.3 -0.8 0.4-0.2 0.7-0.6 1.3 1.2 0.1 1.3-1.6 2.6-1.3l0.7 0.6c0.1-1 1.3-0.6 1.2-1 0.2 0.3 0.6 0.5 0.5 1 0.5-0.3 1.3 0.2 1.5-0.4l-0.5-0.2c1.6 0.3 4.2-1.2 5.8-0.6l-1.1 1.5c0.2 0.2 0.6 0.1 1 0 0.2 0.4 0.6 0.7 0.1 1.7 0.5-0.7 0.3-0.7 0.8-0.3 0.1-0.5-0.3-1.1-0.4-1.8 0.3 0.2 0.6 0.5 0.9 0.9l-0.4-1.7 -0.7 0.1c0.4-0.2 0.7-0.3 0.9-0.4 0.2 0.2 0.3 0.1 0.6-0.6 0 0 0-0.1 0-0.1 0 0 0.1 0 0.1 0 0.2 0.7 0.1 1.3 0 1.9 -0.1 0.6-0.2 1.1 0.1 1.8 -0.2 0.7-0.7 0.4-1 1.1 0.3 0.5 0.1 1.3-0.1 1.9 0 0.1-0.1 0.3-0.1 0.4 0 0.1-0.1 0.2-0.1 0.3 0 0.2 0 0.3 0.2 0.5 -0.1 0.2-0.1-0.4-0.4-0.3 0.2 0.6 0.1 1 0.6 1.1l0.1-0.5c0 0.4 0.6 0.5 0.3 1.3 0.4 0.4 1.1 0.7 1.1 0.2 0.1 0.2-0.3 0.7-0.7 0.5 0.1 1.2 1.6 0.5 1 1.8 0-0.1-0.1-0.2-0.2-0.1 -0.1 0.3-0.1 0.6 0 0.8 -0.2-1.1-1.2 0.4-1-0.9 -0.8 0.2-0.1 1-0.4 1.4 0.6 0.6 1.1 0 1.5 0.3 -0.2 0-0.2 0.3-0.3 0.6l0.6-0.3c0 0.3 0 0.5 0.2 0.8l-0.3-0.5c-0.1 0.6-1 1.5-0.3 2.4 -0.3-0.2-0.8-0.7-1-0.1 0.4 1-0.2 0.3-0.6 0.9 0.2 1.1 1.1 0.1 0.8 1.7 0 0.2 0.3 0 0.5-0.2 -0.2 1.1 0.2 1.6-0.2 2.7 0.1-0.5 0.3-0.8 0.6-0.2 -0.5-0.2-0.4 0.9-0.7 1.3l0.3 0.1c-0.3 0.3-0.4 0-0.6-0.3 0.1 0 0.2-0.1 0.2-0.3 -0.3-0.5-1.4-0.2-1.4 0.6 0.3 0.8 1.1 0.7 1.4 0.5 -0.2 1.2 1.4 1 1 2.1 0 0.3-1.1 1.2-1.2 2 0.7 0.4 0.4-1 1.1-0.6 -1.6 1.4 1.2 2.7 0.3 4.5l-0.8-0.2c0 0.4-0.1 0.8 0.1 1.3l0.4-0.6c0.2 0.4 0.1 1.4-0.5 1.1 0.7 0.9 0.3 1.1 0.2 2 0-0.9 0.1 0-0.4-0.7 -0.4 1-0.1 1 0.1 1.7 -0.3-0.1-0.7 0.3-0.7 0.5 0.6 0.6 0.5 1.6 0.8 2.5l-0.2 0c0.4 1.4-0.7 3.1 0.1 4.5 0 0 0 0.1 0 0.1l0-0.1c0.8-0.5 0.6 1.1 1 1.5 -0.2 0.1-0.5 0.2-0.5 0.4 0.7 0 0.4 0.5 0.8 0.7 -0.2 0.5-0.9 0-0.8 0.8 0.1 0.3 0.5 0.3 0.7 0.3 -0.4 0.2-0.6 0.8-0.7 1.2 -0.2-0.1 0-0.4 0-0.5 -0.4 0-0.2 0.3-0.7 0.3 0 0.4 0.7 0.1 0.5 0.6l-0.6-0.4c-0.1 0.2 0.1 0.5 0.2 0.6 -0.1-0.2-0.3-0.2-0.5-0.2l0 0.6c0.5 0.1 1.2-0.4 1.6-0.4 -0.4 1.1 0.4 2 0.5 2.8l-0.7-0.1c0.1 0.4 0.3 0.6 0.6 0.7l0 0.6c-0.3-0.4-0.5-0.5-1-0.5 0.2 0.7 0.1 1.6 1 1.8l-0.2 0c-0.3 0.9-0.4 2.9-0.7 2.8 0.4 1-0.1 2.2 0.8 2.2 0.2 0.6-1.1 1.6 0.1 1.9 -0.6 0.7-0.2 0.1-0.9-0.1 -0.6 0.7 1 1.3-0.3 1.7 0.4 0.8 0.3-0.2 0.8 0 -1.2 0.2-0.1 1.5-0.8 2.3 0.5 0.3 0.3-0.4 0.8 0.2 -0.3 0-0.3 0.3-0.4 0.4l0.8 0.1 -1.3 0.6 0 0.7c0.5 0.1 0.8-0.4 1.1 0.8l-0.1-0.1C405.6 108.9 407 109.5 406.5 110.6zM366.8 125.3c0 0.1 0.2 0.3 0.4 0.1 0-0.1 0.1-0.2 0.1-0.4 0 0 0 0.1 0 0.1C367.1 125.2 366.9 125.2 366.8 125.3zM395.9 75.5c0.1-1.4-0.2-2.8-0.9-4.1 -0.7-1.3-1.5-2.4-2.5-3.4 -1-1-2.1-1.7-3.4-2.4 -1.3-0.6-2.5-1.2-3.8-1.6 -0.5-0.2-1.1-0.4-1.7-0.6 -0.6-0.2-1.2-0.4-1.8-0.5 -0.6-0.1-1.2-0.1-1.8-0.1 -0.6 0-1.2 0.2-1.8 0.4 -0.6 0.3-1.1 0.7-1.5 1.3s-0.6 1.2-0.8 1.8c-0.2 0.6-0.3 1.3-0.4 2 -0.1 0.7-0.2 1.3-0.2 1.9 0 0.5-0.1 1-0.1 1.4 0 0.5 0 0.9-0.1 1.4 -0.1 0.2-0.1 0.4-0.1 0.6 -0.1 0.3-0.1 0.6-0.1 0.8 0 0.3-0.1 0.5-0.1 0.8 -0.1 0.6-0.2 1.2-0.2 1.7 -0.1 0.6-0.2 1.2-0.3 1.7 -0.1 0.8-0.2 1.7-0.3 2.6s-0.2 1.7-0.3 2.6c-0.4 0-0.8 0-1.1 0.2 -0.3 0.2-0.6 0.4-0.9 0.7 -0.2 0.3-0.4 0.6-0.4 1.1 -0.1 0.4 0 0.8 0.2 1.3 0.3 0.4 0.5 0.9 0.8 1.3 0.3 0.4 0.6 0.8 0.9 1.2 -0.1 2.6-0.2 5.2-0.2 7.8 0 2.6 0.2 5.2 0.4 7.8 0.1 0.6 0.3 1.2 0.7 1.6 0.4 0.4 0.9 0.6 1.5 0.6 0.5 0 1.1-0.2 1.5-0.6 0.5-0.4 0.7-1 0.6-1.6 -0.1-1.8-0.3-3.7-0.3-5.5 -0.1-1.8-0.1-3.7-0.1-5.5 0.9 1 1.9 1.8 3 2.7 0.9 0.7 1.8 1.2 2.7 1.7s1.9 1 2.8 1.6c1.1 0.6 2 1.3 3 2.1 0.9 0.8 1.9 1.6 2.8 2.3 0.5 0.4 1.1 0.5 1.7 0.3 0.6-0.2 1-0.5 1.3-1.1 0.3-0.6 0.4-1.1 0.2-1.7s-0.5-1-1-1.3c-0.8-0.6-1.7-1.3-2.5-2 -0.8-0.7-1.7-1.4-2.6-2 -0.9-0.6-1.8-1.2-2.8-1.7s-1.9-1.1-2.9-1.7c-0.4-0.2-0.7-0.5-1-0.8 -0.3-0.3-0.7-0.6-1-0.9 0.9-0.4 1.8-0.9 2.7-1.5 0.9-0.6 1.6-1.2 2.4-1.8 1.5-1.3 3-2.6 4.3-4.2 1.3-1.5 2.6-3.1 3.8-4.8 0.5-0.7 0.8-1.3 1.1-2C395.6 77.1 395.8 76.4 395.9 75.5zM405.6 110.7c0-0.1-0.1-0.2-0.1-0.3l0 0.3C405.6 110.8 405.6 110.8 405.6 110.7z"></path>
    <path _ngcontent-c2="" class="logo__box logo__box--03" d="M449.5 83.3c0.1 1.1-0.1 2.4-0.6 3.7 -0.5 1.3-1.2 2.5-2 3.8 -0.9 1.2-1.7 2.3-2.7 3.4 -0.5 0.5-1 1-1.5 1.5 -0.5 0.5-1.1 0.9-1.7 1.3 -0.2 0.2-0.4 0.3-0.7 0.4 -0.2 0.1-0.4 0.2-0.7 0.2 -0.6-0.2-1.2-0.3-1.7-0.4 -0.6-0.1-1.2-0.2-1.8-0.3 -0.9-0.2-1.8-0.7-2.5-1.5 -0.8-0.9-1.6-1.9-2.2-3 -0.6-1.1-1.2-2.2-1.7-3.2 -0.4-1-0.7-1.8-0.8-2.6 -0.2-0.8-0.2-1.6-0.1-2.5 0.1-1.1 0.2-2 0.3-2.9 0.1-0.9 0.3-1.9 0.5-2.9 0.2-1.1 0.4-2.2 0.7-3.2s0.6-2.2 0.9-3.2c0.1-0.4 0.3-0.7 0.3-0.9 0.1-0.2 0.2-0.5 0.5-0.9 0 0 0.2-0.1 0.4-0.4 0.1-0.1 0.3-0.1 0.5-0.2l0.8 0.1c0.1 0 0.2 0.1 0.3 0.1 0.1 0 0.2 0 0.3 0.1 0.8 0.3 1.7 0.7 2.6 1.3 0.9 0.6 1.8 1.2 2.6 1.9 0.8 0.7 1.6 1.4 2.5 2.1 1 0.8 2 1.7 3 2.5 1 0.8 2 1.7 2.9 2.7C448.8 81 449.4 82.1 449.5 83.3zM463.6 108.1c0.1-0.4-0.4-0.1-0.6-0.2l0.4 0.6c0-0.1-0.1-0.1-0.2 0 -0.5 0.6 0.3 0.4-0.1 1.1 -0.1-0.2-0.2-0.2-0.4-0.2l0.1 0.8 0.2 0.2 -0.2-0.1 0.3 4.2c0.4 0.6 0.3 1.3 0.2 2l0 0.4 -0.1 0c0 0.1 0 0.1 0 0.2l-0.6 0.2c0 0.4 0.4 0.6 0.6 0.7 0.2 0.3-0.9 1.2-1.5 1.4 -1.6-0.1-0.3-1.4-1.4-1.7l-1.5 0.6 0-0.4c-0.2-0.3-0.4 0.2-0.4 0.2 0.1-0.6-1.2-0.2-1.7-0.3l0.2 0.5c-1.7 1.1-2.5-1.4-3.8-0.8l-0.9 0.8 -0.2-0.8c-0.5 0.4-0.7 1-1.5 0.7 -3-1.4-6.3 0.1-9.4-0.9 0 0.2 0.1 0.2 0.3 0.3 -2.6-2-4.3 1.8-6.7 0.2l0.2-0.3c-1.2 0.1 0.2-0.3-0.7-0.7 -0.2 0.9-1.6 0.7-2.3 1 0.1-0.2 0.4-0.2 0.6-0.3 -0.1-0.2-0.2-0.8-0.5-0.6 -0.8 1.3-2.5 1.1-3.8 1.4 -0.1-0.6-1.2-1.2-1.7-2.2 -0.1 0.2-0.4 0.7-0.6 1.1 -0.4-0.4-0.8-0.1-1.1 0.2 0.4 0 0.8 0 1 0 0 0 0 0 0 0.1 0 0 0.1 0 0.2-0.1 0.3 0 0.4 0 0.4-0.1 0.5 0.6-0.1 0.5 0 1.2 -0.4 0-1.3 0.2-1.3-0.4 -0.2 0-0.4-0.1-0.7-0.2 -0.2 0.1-0.3 0.2-0.5 0.1l0.1-0.1c0-0.1-0.1-0.2-0.1-0.2 -0.4-0.2-0.9 0-1.4 0.3 -0.5 0.3-0.8 0.6-1.6 0.8 0.7-0.4 0.6-0.7 0.4-0.9 -0.2-0.2-0.5-0.4-0.4-0.7 -0.1 0 0.2 0.1 0.7 0.1 0.3 0 0.8 0.1 1.3 0.1 -0.1-0.1-0.1-0.2-0.1-0.4 -0.2-0.2-0.4-0.2-0.6-0.2 -0.2 0-0.4 0.1-0.7 0.2 -0.6 0.2-1.4 0.3-2.3 0.1 0.2-0.1 0.5-0.2 0.5-0.4 -0.5-0.2-1.4 0.3-1.8 0.6 0.2-0.5-0.3-0.9-0.9-0.9 0-0.2 0-0.4-0.1-0.5 -0.5-0.1-0.7 0.1-0.8-1.1 0.2 0.1 0.3 0.2 0.5 0.2 0.3-1.3-0.6-0.8-0.4-1.8 0 0.3 0.3 0.1 0.4-0.2 -0.3-1.2-0.6-1.4-1.5-2l0.7 0.1c-0.5-0.8-1.4-2.3-0.4-2.3 -1.4 0.3-0.8-1.7-0.8-2.4 0.1 0.2 0.4 0.3 0.5 0.3 -1-1.4-0.2-3-0.3-4.5l1-0.3c-0.1-0.8-2.2-0.9-2.2-1.8l0.5 0.3c-0.2-1.5-0.2-2.1-0.1-3.4l0.7 0c-0.3-0.4-0.4-1-0.7-1.4 1.7-1.1-1.1-3.9 0.7-5.8l-1.3-0.1c0-0.7-0.3-1.6 0.7-2l0 0.2c1 0 0-0.7 0.2-1.1 -0.1-0.3-0.8-0.6-1-0.3 0.6-1.9-0.2-4.6 0.9-5.8 -0.5-1.8-1.6-3.2-1.6-5.2l0.2 0c0.1-0.7 0.4-2.1 1.5-2.1 -0.3-1.4-1.9-2.3-1.5-4l0.4 0.4c0.2-0.4-0.4-1.1-0.5-1.3 0-0.2 0.2-0.1 0.4 0 0.4-0.4-0.2-0.6-0.4-1l0.4 0.1c0.7-1.4-0.9-3.5-0.8-5.3 0.1 0.3 0.5 0.1 0.7 0 -1.3-0.7-1.1-2.7-1.4-3.4l0.5 0.4c-0.9-1.4 1.2-1.3 0.3-2.7l-0.7 0.9c0.2-0.6-0.1-1.1-0.6-0.9 0.4-0.7 0.9-0.1 1-1.2 0.3-0.1 0.3 0.7 0.7 0.4l0.8-1.5 0 0c0 0 0-0.1 0.1-0.1l-0.1 0.1c0.1 0 0.1-0.2 0-0.7 -1.5 0.2-0.1-1.2-1.6-0.4 -0.1-0.5 0-1 0-1.5l0-0.4 0-0.6c0-0.4 0-0.7 0.1-1.1 0.1-1.5 0.1-2.7-0.3-4.4 0.2 0 0.3-0.1 0.4-0.2 1.2 0.3 2.2 0.2 3.2 0.2 1 0 1.7 0.2 1.9 1 0.3 0 0.6 0 0.8-0.1s0.5-0.1 0.7-0.3c0.4-0.2 0.7-0.5 1-0.9 -0.2-0.1-0.4 0.1-0.6 0.2 0.2-0.5 1.4-0.6 1.9-0.7 -0.6 0.5-1.6 0.9-2.1 1.7 0.9-0.2 2.1-1 2.5-1.3l0.3 1c0.7-0.8 0.7 0.8 1.4-0.3l-0.2-0.3c1.4 0 1.3-1 2.6-1.2l0 0.4c0.4 0.1 1-0.8 1.5 0l-0.8 0.1c0.1 0.7 0.8 0.9 1.1 1.3 0.9-0.2 0.2-1.1 0.7-1.3 0.2 0.6 0.1 0.3-0.2 1 1-0.3 2.3-0.6 2.9-1.5 0 0.1 0 0.2 0 0.2 1 0.1 1.9-1.2 2.5-0.6l-0.2 0.1c0.9 0.9 2.1-1 2.3 0.6 0.4 0.3-0.9 0-0.2 0.7 1.2 0.4 0.7-1.4 1.8-1 -0.1 0-0.1 0.1-0.1 0.2 0.8-0.1 1.8-0.3 2.6-0.5 1.1 1.3 3.2-0.5 4.5 0.9 -0.4-0.5 0.3-0.6 0.3-0.9 0 0 0 0.1 0 0.2 0.4 0 0.5-0.5 0.6-0.7 0.4 0.4 1.2-0.6 1.4-0.3 0-0.3 0.3-0.3 0.7-0.3 -0.8 0.4-0.2 0.7-0.5 1.3 1.2 0.1 1.3-1.6 2.5-1.4l0.7 0.6c0.1-1 1.2-0.7 1.2-1 0.2 0.3 0.5 0.5 0.5 0.9 0.5-0.3 1.2 0.2 1.4-0.4l-0.5-0.2c0.4 0.1 0.7 0 1-0.1l0.2-0.1c0.1 0 0.2-0.1 0.3-0.1 0.2-0.1 0.5-0.1 0.7-0.2 0.9-0.3 2-0.5 2.8-0.2l-0.8 1.5c0.3 0.2 0.6 0.1 1.1 0 0.4-0.1 0.9-0.3 1.3-0.3 0 0.2-0.1 0.5-0.2 0.9 0.4-0.8 0.3-0.8 0.8-0.5 0-0.3-0.1-0.6-0.2-0.8 -0.4 0.1-0.8 0.2-1.1 0.2 0.5-0.2 0.9-0.4 1.4-0.6 0.1 0.1 0.2 0.2 0.3 0.3l-0.1-0.5 -2.2 0.4c1.4-0.7 1.4-0.5 1.3-1.1 0.9-0.2 1.3-0.2 1.6-0.1 -0.1 0.8-0.3 1.4 0.1 2.1 -0.1 0.7-0.7 0.6-0.9 1.4 0.3 0.5 0.1 1.3-0.1 1.9 -0.2 0.6-0.3 1.1 0.1 1.4 -0.1 0.3-0.1-0.5-0.4-0.3 0.2 0.8 0.2 1.1 0.6 1.2l0.1-0.5c0 0.4 0.6 0.4 0.3 1.2 0.4 0.4 1.1 0.6 1.1 0.1 0.1 0.2-0.2 0.7-0.7 0.5 0.1 1.2 1.6 0.5 1 1.7 -0.1-0.1-0.1-0.2-0.2-0.1 -0.1 0.3-0.1 0.5 0 0.7 -0.2-1-1.1 0.4-1-0.8 -0.8 0.2-0.1 0.9-0.4 1.3 0.6 0.6 1.1 0 1.5 0.2 -0.2 0-0.2 0.3-0.3 0.6l0.6-0.3c0 0.2 0 0.5 0.2 0.8l-0.3-0.5c-0.1 0.5-0.9 1.4-0.3 2.3 -0.3-0.2-0.8-0.7-1 0 0.5 1-0.2 0.3-0.6 0.9 0.2 1 1.1 0.1 0.8 1.6 0 0.2 0.3 0 0.5-0.2 -0.2 1.1 0.3 1.6-0.1 2.6 0.1-0.4 0.3-0.8 0.6-0.2 -0.5-0.2-0.4 0.9-0.7 1.3l0.3 0.1c-0.3 0.3-0.4 0-0.6-0.2 0.1 0 0.2-0.1 0.1-0.3 -0.3-0.5-1.4-0.2-1.4 0.6 0.3 0.8 1.1 0.6 1.4 0.4 -0.2 1.1 1.4 0.9 1.1 2 0 0.2-1.1 1.2-1.1 1.9 0.7 0.3 0.4-1 1-0.6 -1.6 1.4 1.2 2.6 0.4 4.3l-0.8-0.1c0 0.4 0 0.8 0.1 1.2l0.4-0.6c0.2 0.4 0.1 1.3-0.5 1.1 0.7 0.8 0.4 1.1 0.2 1.9 0-0.9 0.1 0-0.4-0.6 -0.3 1 0 1 0.2 1.6 -0.3-0.1-0.7 0.3-0.7 0.5 0.6 0.6 0.5 1.6 0.9 2.4l-0.2 0c0.4 1.4-0.6 3 0.2 4.3 0 0 0 0 0 0.1l0-0.1c0.7-0.5 0.6 1 1 1.5 -0.2 0.1-0.5 0.2-0.5 0.4 0.7 0 0.4 0.5 0.8 0.7 -0.2 0.5-0.9 0-0.8 0.8 0.1 0.3 0.5 0.3 0.7 0.3 -0.4 0.2-0.6 0.8-0.7 1.2 -0.2-0.1 0-0.4 0-0.5 -0.4 0-0.2 0.3-0.7 0.3 0 0.4 0.7 0.1 0.5 0.6l-0.6-0.4c-0.1 0.2 0.1 0.4 0.2 0.5 -0.1-0.1-0.3-0.2-0.5-0.2l0 0.6c0.5 0 1.1-0.4 1.6-0.4 -0.4 1.1 0.5 1.9 0.6 2.7l-0.7-0.1c0.1 0.4 0.3 0.6 0.6 0.7l0.1 0.6c-0.3-0.3-0.5-0.4-1-0.4 0.2 0.6 0.1 1.6 1.1 1.7l-0.2 0c-0.3 0.9-0.3 2.8-0.6 2.7 0.4 0.9-0.1 2.2 0.9 2.1 0.3 0.5-1 1.6 0.1 1.9 -0.5 0.7-0.2 0.1-0.9-0.1 -0.5 0.7 1 1.3-0.2 1.6 0.5 0.8 0.3-0.2 0.8 0 -1.2 0.3-0.1 1.5-0.7 2.3 0.5 0.3 0.3-0.4 0.8 0.2 -0.3 0-0.3 0.3-0.4 0.4l0.8 0.1 -1.2 0.6 0.1 0.7c0.5 0.1 0.8-0.4 1.1 0.7l-0.1-0.1C462.7 106.5 464.1 107 463.6 108.1zM424.9 118.2c0 0.1 0.1 0.3 0.4 0.2 0.1-0.1 0.1-0.2 0.1-0.3 0 0 0 0.1 0 0.1C425.2 118.2 425.1 118.2 424.9 118.2zM453.7 82.7c-0.1-1.3-0.5-2.5-1.3-3.8 -0.6-1.1-1.4-2.1-2.4-2.9 -1-0.8-1.9-1.7-2.9-2.5 -0.8-0.6-1.6-1.3-2.3-2 -0.7-0.7-1.5-1.3-2.3-2 -0.8-0.7-1.7-1.3-2.7-2 -0.9-0.7-1.9-1.3-3-1.7 -1-0.5-2.1-0.8-3.2-0.9 -1.1-0.1-2.2 0-3.3 0.5 -0.7 0.3-1.3 0.8-1.8 1.4 -0.5 0.6-0.9 1.3-1.2 2.1 -0.3 0.8-0.6 1.5-0.8 2.4 -0.2 0.8-0.4 1.5-0.5 2.2 -0.5 1.8-0.8 3.6-1.1 5.4 -0.3 1.8-0.5 3.7-0.6 5.6 -0.1 1 0 1.9 0.2 2.9 0.2 1 0.5 1.9 0.8 2.8 0.4 0.9 0.8 1.8 1.3 2.7s1 1.7 1.5 2.5c0.5 0.9 1.2 1.7 1.8 2.5 0.7 0.8 1.4 1.5 2.3 2.1 0.6 0.4 1.3 0.7 1.9 0.9 0.7 0.2 1.3 0.3 2 0.4 0.4 0.5 0.9 0.8 1.7 0.9 1.3 0.1 2.6 0 3.7-0.6 1.2-0.5 2.3-1.2 3.3-2.1 1-0.9 2-1.9 2.8-2.9 0.9-1.1 1.6-2.1 2.3-3 0.7-1.1 1.4-2.3 2-3.4 0.6-1.2 1.1-2.4 1.4-3.6C453.8 85.2 453.8 84 453.7 82.7zM462.8 108.3c0-0.1-0.1-0.2-0.1-0.2l0 0.3C462.7 108.3 462.7 108.3 462.8 108.3z"></path>
    <path _ngcontent-c2="" class="logo__box logo__box--01" d="M524.4 43.1c-0.1-0.1-0.1-0.3-0.1-0.4 0-0.1 0-0.1 0-0.2l0-0.4c-0.2 0.2-0.4 0.4-0.6 0.5 0.1-0.4 0.1-0.9 0.3-0.9 -0.2-0.2-0.4-0.1-0.7 0 -0.3 0.1-0.5 0.1-0.8-0.3 0.1-0.3 0.1-0.7 0-1.1 0-0.4 0-0.7 0.4-1.1 -0.1 1 0.1 0.9 0.3 0.7 0.2-0.2 0.4-0.4 0.5 0.1 0-0.3 0-0.6 0-1 0.1-0.1 0.2 0 0.2 0.1 0.6-2.6-0.9-0.5-0.9-2.5 0.2-0.1 0.5-0.4 0.6-0.8 -0.1-0.1-0.3-0.2-0.5-0.1 0.9 0-0.3 0.7-1.3 1 -1-0.4-1.5 0.2-2.1 0.1l0.6 0.2c-0.5 0.4-1 0.3-1.8 0.5 0.1-0.3 0.8-0.2 0.6-0.4 -0.6 0.4-0.9 0.2-1.4-0.1 -0.2-0.1-0.5-0.3-0.8-0.3 -0.2-0.1-0.4-0.1-0.6 0 -0.4-0.3 0-0.8-0.3-1 -1 0.5-1-0.6-2-0.2 0.3 0.6 0.3 0.5-0.4 1l1.7-0.4 -1.1 0.8c0.5 0 1.1-0.3 1.3-0.2 -0.5 0.5-0.5 0.3-0.2 0.8 -0.6-0.9-1.4 0.5-2.1-0.2l0.1-1.5c-1.2-0.7-2.1 0.7-3.6 0.3l0.5 0.3c-0.2 0.6-0.9 0-1.4 0.3 0.1-0.5-0.2-0.7-0.4-1 0 0.4-1.1-0.1-1.3 0.9l-0.7-0.7c-1.2-0.3-1.5 1.3-2.6 1.1 0.4-0.5-0.2-0.9 0.7-1.2 -0.4 0-0.7-0.1-0.8 0.2 -0.2-0.3-1.1 0.6-1.5 0.1 -0.2 0.2-0.2 0.7-0.7 0.7 0-0.1 0-0.2 0-0.2 0 0.2-0.7 0.3-0.3 0.9 -1.2-1.6-3.4 0-4.4-1.4 -0.9 0.1-1.9 0.3-2.7 0.3 0.1-0.1 0-0.2 0.2-0.2 -1.1-0.5-0.7 1.4-1.9 0.8 -0.6-0.8 0.7-0.4 0.3-0.7 -0.1-1.6-1.5 0.2-2.3-0.8l0.2-0.1c-0.6-0.6-1.6 0.6-2.6 0.4 0 0 0.1-0.1 0-0.2 -0.7 0.8-2.1 1-3.1 1.2 0.3-0.6 0.5-0.3 0.3-1 -0.4 0.1 0.1 1-0.8 1.2 -0.3-0.4-0.9-0.7-1-1.4l0.8 0c-0.4-0.9-1.1 0-1.5-0.2l0.1-0.4c-1.3 0.1-1.3 1.1-2.7 0.9l0.1 0.3c-0.8 0.9-0.6-0.6-1.4 0.1l-0.2-1c-0.3 0.1-0.7 0.3-1.2 0.5 -0.5 0.2-1 0.4-1.6 0.5 0.1-0.2 0.4-0.3 0.6-0.5 0.2-0.1 0.4-0.3 0.6-0.4 0.4-0.2 0.8-0.4 1.2-0.6 -0.5 0-1.6 0-2 0.5 0.3-0.1 0.5-0.3 0.7-0.2 -0.2 0.2-0.3 0.3-0.5 0.5 -0.2 0.1-0.5 0.2-0.7 0.3 -0.5 0.2-1 0.2-1.6 0.2 -0.4-1.4-2.3-1.1-4.2-1.4 -0.1 0.5-0.3 0.8-0.7 0.8 0.8 3.2-0.1 6.1 0 7.8 1.5-0.8 0.1 0.6 1.6 0.4 0.1 0.5 0.1 0.6 0 0.7l0.1-0.1c0 0 0 0.1-0.1 0.1l0 0 -0.9 1.5c-0.4 0.4-0.3-0.4-0.7-0.4 -0.1 1-0.6 0.5-1 1.1 0.5-0.2 0.8 0.3 0.6 0.9l0.7-0.8c0.8 1.4-1.2 1.3-0.4 2.7l-0.5-0.4c0.3 0.7 0.1 2.8 1.3 3.5 -0.2 0.1-0.6 0.3-0.7 0 -0.1 1.8 1.4 3.9 0.7 5.4l-0.4-0.1c0.1 0.3 0.7 0.6 0.3 1 -0.2 0-0.4-0.1-0.4 0 0.1 0.2 0.7 0.9 0.5 1.3l-0.4-0.4c-0.4 1.8 1.1 2.7 1.4 4.1 -1.1 0-1.4 1.4-1.6 2.1l-0.2 0c-0.1 2 1 3.4 1.5 5.3 -1.2 1.2-0.4 4-1 5.9 0.2-0.3 0.9 0 1 0.4 -0.2 0.4 0.8 1.2-0.2 1.2l0-0.2c-1 0.4-0.7 1.3-0.7 2l1.3 0.1c-1.9 1.9 0.8 4.8-0.9 5.9 0.3 0.4 0.3 1 0.7 1.4l-0.7 0c-0.1 1.2-0.2 1.9 0 3.4l-0.5-0.3c0 0.9 2.1 1 2.1 1.8l-1 0.3c0.1 1.5-0.8 3 0.2 4.5 -0.2 0-0.5-0.1-0.5-0.3 0 0.4-0.2 1-0.1 1.6 0 0.3 0.1 0.5 0.2 0.7 0.1 0.2 0.4 0.4 0.7 0.2 -0.5 0-0.5 0.7-0.3 1.5 0.2 0.8 0.5 1.6 0.7 2.1 -0.2 0.1-0.5 0.2-0.7 0.2 0.8 0.5 1.1 0.4 1.3 1.1 0.1 0 0.3 0 0.5-0.1 0.2 0.1-0.1 0.4-0.4 0.4 0.7 0.2 1.3-0.6 2.2-0.2 -0.2 0.1-0.5 0.3-0.8 0.4 1.1 0.1 1.2-0.1 2-0.6 0.7-0.2 1.9 0.3 1.9 0.9 0.1-0.4 0.6-0.9 1-0.7 0 0.2-0.1 0.4-0.2 0.4 1.3 0.5 2-0.7 2.8 0 0 0.2 0.1 0.3 0.1 0.4 -1-0.1-1.9-0.1-1.8-0.2 0 0.6 0.8 0.8 0.1 1.6 0.7-0.4 1.9-1.4 2.7-1.1 0 0.1 0.1 0.1 0.1 0.2l-0.1 0.1c0.2 0.1 0.4 0 0.5-0.1 0.3 0.1 0.4 0.2 0.7 0.2 0.1 0.5 0.9 0.3 1.4 0.4 0-0.7 0.5-0.6 0.1-1.2 0.1 0.1-0.1 0.1-0.4 0.1 -0.1 0-0.1 0-0.2 0.1 0 0 0 0 0-0.1 -0.3 0-0.6 0-1 0 0.3-0.3 0.7-0.6 1.1-0.2 0.2-0.4 0.5-0.9 0.6-1.1 0.5 1 1.6 1.6 1.7 2.2 1.3-0.3 3-0.1 3.9-1.4 0.4-0.2 0.4 0.4 0.5 0.6 -0.2 0.1-0.5 0.1-0.6 0.3 0.7-0.3 2.1 0 2.4-0.9 0.9 0.5-0.6 0.8 0.7 0.7l-0.2 0.3c2.4 1.6 4.1-2.1 6.7-0.1 -0.2-0.1-0.3-0.2-0.3-0.3 3.1 1 6.4-0.5 9.4 1 0.9 0.3 1-0.3 1.5-0.7l0.2 0.8 1-0.8c1.3-0.6 2.1 1.9 3.8 0.8l-0.2-0.5c0.6 0.1 1.9-0.2 1.7 0.4 0.1-0.1 0.2-0.5 0.4-0.2l0 0.4 1.5-0.6c1.1 0.3-0.3 1.5 1.4 1.7 0.6-0.1 1.8-1.1 1.6-1.3 -0.2 0-0.6-0.3-0.6-0.7l0.6-0.2c0-0.1 0-0.1 0-0.2l0.1 0 0-0.4c0.1-0.6 0.2-1.1 0-1.7l-0.1-4.4 0.2 0.1 -0.2-0.2 0-0.8c0.1 0 0.3 0.1 0.3 0.2 0.5-0.6-0.4-0.5 0.2-1.1 0.1-0.1 0.1 0 0.2 0l-0.3-0.6c0.2 0.1 0.7-0.1 0.6 0.3 0.6-1.1-0.8-1.7 0-2.1l0.1 0.1c-0.3-1.1-0.6-0.6-1.1-0.8l0-0.7 1.3-0.5 -0.8-0.1c0-0.2 0.1-0.5 0.4-0.4 -0.5-0.6-0.3 0.1-0.8-0.2 0.7-0.8-0.4-2 0.8-2.2 -0.6-0.3-0.4 0.7-0.8-0.1 1.3-0.3-0.2-0.9 0.3-1.6 0.7 0.2 0.3 0.8 0.9 0.1 -1.1-0.4 0.2-1.3 0-1.9 -0.9 0-0.4-1.2-0.7-2.2 0.3 0.1 0.5-1.8 0.8-2.7l0.2 0c-0.9-0.2-0.8-1.1-1-1.7 0.5 0 0.8 0.1 1 0.5l0-0.6c-0.3-0.1-0.5-0.3-0.6-0.7l0.7 0.1c-0.1-0.8-0.8-1.7-0.4-2.8 -0.4 0-1.1 0.4-1.6 0.3l0-0.6c0.2 0 0.4 0.1 0.5 0.2 0-0.1-0.3-0.3-0.2-0.5l0.6 0.4c0.2-0.5-0.5-0.2-0.4-0.6 0.5 0 0.3-0.3 0.7-0.3 0 0.1-0.2 0.3 0 0.5 0.1-0.4 0.4-1 0.7-1.2 -0.3 0-0.7 0-0.7-0.3 -0.1-0.8 0.6-0.3 0.8-0.8 -0.3-0.2 0-0.7-0.7-0.7 0-0.2 0.3-0.3 0.5-0.4 -0.3-0.4-0.1-2-0.9-1.5l0 0.1c0 0 0 0 0-0.1 -0.8-1.4 0.3-3 0-4.4l0.2 0c-0.3-0.8-0.2-1.9-0.8-2.5 0-0.2 0.4-0.6 0.7-0.5 -0.2-0.6-0.5-0.7-0.1-1.6 0.4 0.6 0.4-0.2 0.3 0.7 0.2-0.8 0.6-1-0.1-1.9 0.6 0.3 0.8-0.7 0.6-1l-0.4 0.6c-0.1-0.4-0.1-0.8 0-1.2l0.8 0.2c1-1.7-1.8-3.1-0.1-4.4 -0.6-0.4-0.4 0.9-1.1 0.6 0.1-0.8 1.3-1.6 1.3-1.9 0.4-1.1-1.2-1-0.9-2.1 -0.3 0.2-1.1 0.3-1.4-0.5 0.1-0.8 1.2-1 1.5-0.5 0 0.2-0.1 0.3-0.2 0.3 0.1 0.3 0.2 0.6 0.6 0.3l-0.3-0.1c0.3-0.4 0.2-1.5 0.7-1.2 -0.3-0.6-0.5-0.2-0.6 0.2 0.4-1 0-1.6 0.2-2.6 -0.2 0.2-0.5 0.3-0.5 0.2 0.3-1.5-0.6-0.7-0.7-1.7 0.4-0.6 1.1 0.2 0.7-0.8 0.3-0.6 0.8-0.2 1 0.1 -0.6-0.9 0.3-1.8 0.4-2.3L524.4 43.1zM484 106.7C484 106.6 484 106.6 484 106.7c0 0 0 0.2-0.1 0.3 -0.3 0.1-0.4-0.1-0.4-0.2C483.7 106.7 483.8 106.7 484 106.7zM508 76.6c-0.3 1.3-0.7 2.5-1.1 3.9 -0.4 1.3-1 2.6-1.6 3.8 -0.6 1.2-1.3 2.4-2.1 3.5 -0.8 1.1-1.7 2.1-2.7 2.9 -1 0.8-2.2 1.5-3.4 1.9 -1.2 0.5-2.5 0.6-3.8 0.3 -1-0.2-1.9-0.6-2.7-1.3 -0.8-0.7-1.4-1.4-1.9-2.3 -0.9-1.8-1.6-3.8-1.9-5.8 -0.3-2-0.5-4.1-0.8-6.1 -0.4-3.7-0.7-7.4-0.8-11s-0.4-7.3-0.8-10.9c-0.1-0.6 0.1-1.2 0.6-1.6 0.5-0.4 1-0.6 1.6-0.6 0.7 0 1.2 0.2 1.5 0.6 0.4 0.4 0.6 1 0.7 1.6 0.3 2.2 0.4 4.4 0.6 6.6 0.1 2.2 0.2 4.3 0.4 6.6 0.1 3.2 0.4 6.5 0.8 9.7 0 0.4 0.1 0.9 0.1 1.4 0.1 0.5 0.1 0.9 0.1 1.2 0.1 0.5 0.2 1 0.2 1.5 0.1 0.5 0.2 1 0.3 1.4 0.2 0.9 0.5 1.8 0.7 2.5 0.3 0.8 0.7 1.4 1.2 1.9l0.5 0.3c0.3 0.1 0.5 0.1 0.8 0.1 0.3 0 0.6-0.1 1.1-0.3 0.5-0.2 0.9-0.4 1.3-0.6 1-0.7 1.8-1.5 2.5-2.5 0.7-1 1.3-2 1.8-3.1 0.6-1.2 1.1-2.4 1.5-3.7s0.8-2.5 1.1-3.8c0.7-3.2 1-6.5 1-9.8 -0.1-3.3-0.3-6.6-0.7-9.8 -0.1-0.6 0.1-1.1 0.6-1.5 0.5-0.4 1-0.7 1.5-0.7 0.7 0 1.2 0.2 1.5 0.7 0.4 0.4 0.6 1 0.7 1.5 0.5 3.5 0.7 7.1 0.8 10.8C509.3 69.6 508.9 73.1 508 76.6zM522.2 97.3c0 0-0.1 0.1-0.1 0.1l0-0.3C522.1 97.1 522.2 97.2 522.2 97.3z"></path>
    <path _ngcontent-c2="" class="logo__box logo__box--02" d="M582.3 101.9L582.3 101.9c-0.3-1-0.5-0.5-1-0.7l0-0.7 1.2-0.6 -0.8-0.1c0-0.2 0.1-0.5 0.4-0.4 -0.6-0.6-0.3 0.1-0.8-0.2 0.6-0.8-0.4-2.1 0.8-2.3 -0.6-0.2-0.4 0.8-0.8 0 1.3-0.3-0.3-0.9 0.3-1.7 0.7 0.2 0.4 0.9 0.9 0.1 -1.2-0.4 0.2-1.4-0.1-1.9 -0.9 0-0.4-1.3-0.8-2.2 0.3 0 0.4-1.9 0.7-2.8l0.2 0c-0.9-0.1-0.8-1.1-1-1.8 0.5 0 0.8 0.1 1 0.5l0-0.6c-0.3-0.1-0.5-0.3-0.6-0.7l0.7 0.1c-0.1-0.9-0.9-1.7-0.5-2.8 -0.4 0-1.1 0.4-1.6 0.4l0-0.6c0.2 0 0.4 0.1 0.5 0.2 -0.1-0.1-0.3-0.3-0.2-0.6l0.6 0.4c0.2-0.5-0.5-0.2-0.5-0.6 0.5 0 0.3-0.3 0.7-0.3 0.1 0.1-0.2 0.4 0 0.5 0.1-0.5 0.3-1 0.7-1.2 -0.3 0.1-0.7 0-0.7-0.3 -0.1-0.9 0.6-0.3 0.8-0.8 -0.4-0.2 0-0.8-0.8-0.7 0-0.3 0.3-0.3 0.5-0.4 -0.3-0.4-0.2-2.1-1-1.5l0 0.1c0 0 0 0 0-0.1 -0.8-1.4 0.2-3.1-0.2-4.5l0.2 0c-0.3-0.9-0.3-1.9-0.8-2.5 0-0.3 0.4-0.6 0.7-0.5 -0.2-0.7-0.5-0.7-0.2-1.7 0.5 0.6 0.4-0.3 0.4 0.7 0.2-0.9 0.5-1.1-0.2-2 0.6 0.3 0.8-0.7 0.5-1.1l-0.4 0.6c-0.1-0.5-0.1-0.9-0.1-1.3l0.8 0.2c0.9-1.8-1.9-3.1-0.3-4.5 -0.6-0.4-0.4 1-1 0.6 0.1-0.8 1.2-1.7 1.2-2 0.4-1.1-1.3-1-1-2.1 -0.3 0.2-1.1 0.4-1.4-0.5 0.1-0.8 1.2-1.1 1.4-0.6 0 0.2-0.1 0.3-0.2 0.3 0.1 0.3 0.3 0.6 0.6 0.3l-0.3-0.1c0.3-0.4 0.2-1.5 0.7-1.3 -0.3-0.6-0.5-0.2-0.6 0.2 0.4-1.1-0.1-1.6 0.1-2.7 -0.2 0.2-0.5 0.4-0.5 0.2 0.3-1.6-0.6-0.7-0.8-1.7 0.4-0.6 1.1 0.2 0.6-0.9 0.3-0.7 0.8-0.2 1 0.1 -0.6-0.9 0.3-1.8 0.3-2.4l0.3 0.5c-0.2-0.3-0.2-0.6-0.2-0.8l-0.6 0.3c0.1-0.3 0.1-0.6 0.3-0.6 -0.4-0.3-1 0.3-1.5-0.3 0.3-0.4-0.4-1.2 0.4-1.4 -0.2 1.3 0.8-0.2 1 0.9 -0.1-0.2-0.1-0.5 0-0.8 0.1-0.1 0.2 0 0.2 0.1 0.6-1.3-0.9-0.5-1-1.8 0.2 0.1 0.4 0 0.6-0.1 0.1-0.1 0.1-0.1 0.1-0.2 0-0.1 0-0.2 0-0.3 0 0.5-0.2 0.4-0.4 0.4 -0.2 0-0.5-0.3-0.7-0.7 0.3-1.4-0.3-1.3-0.3-1.9l-0.1 0.8c-0.4-0.1-0.4-0.6-0.6-1.3 0.1-0.1 0.2-0.1 0.2 0 -0.1-0.2-0.1-0.5 0-0.9 0.1-0.5 0.3-1.2 0.4-1.8 -0.2 0-0.5 0-0.9 0.1 -0.4-0.3 0.6-0.8 0.1-1 -1 0.3-1.4 0.1-1.8 0 -0.4-0.2-0.9-0.3-1.8-0.1 0.4 0.6 0.4 0.4-0.8 1l2.8-0.4c-0.7 0.3-1.4 0.6-2 0.9 0.7 0 1.7-0.4 2.1-0.3 -1 0.5-0.8 0.3-0.8 0.8 -0.2-0.4-0.8-0.3-1.3-0.1 -0.5 0.2-1 0.4-1.5 0.1l0-1.5c-1.2-0.7-2.2 0.8-3.7 0.4l0.5 0.3c-0.2 0.6-1 0.1-1.5 0.3 0-0.5-0.3-0.7-0.5-1 0 0.4-1.1 0-1.3 0.9l-0.7-0.6c-1.3-0.3-1.4 1.4-2.7 1.2 0.4-0.5-0.2-0.9 0.6-1.3 -0.4 0-0.8-0.1-0.8 0.2 -0.2-0.3-1.1 0.7-1.5 0.2 -0.2 0.2-0.2 0.7-0.7 0.7 0-0.1 0-0.2 0-0.2 0 0.2-0.7 0.3-0.3 0.9 -1.3-1.5-3.5 0.1-4.6-1.2 -0.9 0.2-2 0.3-2.8 0.4 0.1-0.1 0-0.2 0.2-0.2 -1.1-0.5-0.7 1.4-2 0.9 -0.6-0.8 0.7-0.4 0.3-0.7 -0.2-1.6-1.5 0.2-2.4-0.7l0.2-0.1c-0.7-0.5-1.6 0.6-2.7 0.5 0 0 0.1-0.1 0-0.2 -0.7 0.8-2.1 1.1-3.1 1.3 0.3-0.6 0.5-0.3 0.3-1 -0.5 0.1 0.1 1-0.8 1.2 -0.3-0.3-1-0.6-1-1.3l0.9 0c-0.4-0.9-1.1 0-1.6-0.1l0.1-0.4c-1.3 0.1-1.3 1.1-2.8 1l0.1 0.3c-0.8 1-0.8-0.5-1.7 0.2 -0.2-0.3-0.4-0.7-0.6-1 -0.3 0.1-0.8 0.3-1.3 0.6 -0.5 0.2-1 0.4-1.4 0.5 0 0.1 0 0.1 0 0.2 0-0.1-0.1-0.2-0.1-0.3 0-0.6 1.2-1 2-1.4 -0.8 0-2.7 0.1-2.6 0.6 0.2-0.1 0.4-0.3 0.8-0.2 -0.1 0.3-0.3 0.5-0.5 0.7 0.3 0.9 0.4 1.6 0.4 2.4 -0.9-0.7-1.1 0.2-1.2 1.3 0 0.3 0 0.6-0.1 0.9 0 0.1 0 0.3-0.1 0.4 0 0.1 0 0.2-0.1 0.3 -0.1 0.4-0.3 0.7-0.7 0.8 0.7 1.8-0.4 3.6-0.3 5.6 1.5-0.7 0 0.6 1.5 0.5 0.1 0.5 0.1 0.7 0 0.7l0.1-0.1c0 0 0 0.1-0.1 0.1l0 0 -0.9 1.5c-0.4 0.3-0.3-0.5-0.7-0.4 -0.1 1.1-0.7 0.4-1.1 1.1 0.5-0.1 0.8 0.4 0.5 1l0.7-0.8c0.8 1.5-1.3 1.3-0.5 2.8l-0.5-0.5c0.3 0.8-0.1 2.8 1.1 3.6 -0.2 0.1-0.6 0.3-0.7 0 -0.2 1.8 1.2 4.1 0.4 5.5l-0.4-0.1c0.1 0.3 0.7 0.6 0.3 1 -0.2 0-0.4-0.1-0.4 0 0.1 0.2 0.6 0.9 0.4 1.4l-0.4-0.4c-0.5 1.8 1 2.8 1.2 4.3 -1.1 0-1.5 1.4-1.7 2.1l-0.2 0c-0.2 2.1 0.8 3.6 1.2 5.5 -1.2 1.2-0.6 4.1-1.3 6 0.2-0.3 0.9 0.1 1 0.4 -0.2 0.4 0.7 1.3-0.3 1.2l0-0.2c-1 0.3-0.7 1.3-0.8 2l1.3 0.1c-1.9 1.9 0.6 5-1.1 6 0.3 0.5 0.3 1 0.6 1.5l-0.7 0c-0.2 1.3-0.3 1.9-0.2 3.5l-0.5-0.3c-0.1 0.9 2 1.2 2 2l-1.1 0.2c0 1.5-1 3.1-0.1 4.6 -0.2 0-0.5-0.1-0.5-0.3 0 0.7-0.8 2.8 0.7 2.6 -0.5 0-0.5 0.4-0.4 0.9 0.1 0.3 0.2 0.5 0.3 0.8 0.1 0.4 0.2 0.8 0.3 1.1 -0.2 0-0.5-0.1-0.7-0.1 0.4 0.5 0.7 0.7 0.9 1 0.2 0.3 0.3 0.6 0.4 1.2 -0.1 0.3-0.4 0.5-0.4 0.2 -0.1 0.5 0 0.6 0.2 0.7 0.2 0.1 0.3 0.3 0.1 1.1 -0.1 0-0.3-0.1-0.4-0.1 -0.1 0.9 0 1 0.3 1 0.2-0.1 0.5-0.2 0.8-0.4 0.5-0.2 0.9-0.1 1.2 0 0.3 0.1 0.6 0.4 0.5 0.7 0.4-0.4 1.2-0.9 1.8-0.8 0 0.2-0.3 0.4-0.4 0.5 0.9 0.2 1.8 0 2.3-0.2 0.4-0.2 0.8-0.4 1.3 0 0 0.2 0.1 0.3 0.2 0.4 -0.5 0-1 0-1.3 0 -0.2 0-0.4 0-0.5 0 -0.1 0-0.2 0-0.2 0 0 0.3 0.4 0.5 0.5 0.7 0.1 0.1 0.1 0.2 0.1 0.4 0 0.1 0 0.2-0.1 0.2 0 0.1-0.1 0.2-0.3 0.3 0.2-0.1 0.3-0.1 0.4-0.2 0.1-0.1 0.2-0.2 0.3-0.2 0.2-0.2 0.4-0.3 0.7-0.5 0.5-0.3 1-0.5 1.4-0.4 0 0.1 0.1 0.1 0.1 0.2l-0.1 0.1c0.2 0.1 0.4 0 0.5-0.1 0.3 0.1 0.4 0.2 0.7 0.2 0.1 0.5 1 0.2 1.4 0.3 -0.1-0.7 0.5-0.6 0-1.2 0.1 0-0.1 0.1-0.4 0.1 -0.1 0-0.1 0-0.2 0.1 0 0 0 0 0-0.1 -0.3 0-0.6 0.1-1.1 0.1 0.3-0.4 0.7-0.7 1.2-0.3 0.2-0.5 0.4-0.9 0.6-1.1 0.6 1 1.8 1.4 1.9 2 1.3-0.4 3.1-0.4 3.8-1.7 0.4-0.2 0.4 0.4 0.6 0.6 -0.2 0.1-0.5 0.1-0.6 0.3 0.7-0.4 2.2-0.2 2.3-1.1 1 0.4-0.5 0.9 0.8 0.7l-0.2 0.3c2.6 1.4 4-2.5 6.9-0.7 -0.2-0.1-0.3-0.2-0.3-0.3 3.2 0.7 6.6-1 9.8 0.2 0.9 0.2 1-0.4 1.5-0.8l0.2 0.7 0.9-0.9c1.3-0.7 2.4 1.8 4 0.5l-0.2-0.5c0.6 0.1 1.9-0.4 1.8 0.2 0.1-0.1 0.2-0.5 0.4-0.3l0 0.4 1.5-0.7c1.2 0.2-0.1 1.6 1.6 1.6 0.6-0.2 1.7-1.2 1.5-1.5 -0.3 0-0.7-0.2-0.7-0.6l0.6-0.2c0-0.1 0-0.1 0-0.2l0.1 0 0-0.6c0-0.4 0-0.8-0.1-1.2l-0.3-5 0.2 0.1 -0.2-0.2 0-0.9c0.1 0 0.3 0.1 0.3 0.2 0.5-0.7-0.4-0.5 0.1-1.1 0.1-0.1 0.1 0 0.2 0l-0.3-0.6c0.2 0.1 0.7-0.1 0.6 0.2C583 103 581.6 102.4 582.3 101.9zM542.8 117.2C542.8 117.2 542.8 117.1 542.8 117.2c0 0 0 0.2-0.1 0.3 -0.3 0.1-0.4 0-0.4-0.2C542.4 117.3 542.6 117.3 542.8 117.2zM568.2 66.8c-0.4 3.2-0.8 6.5-1.2 9.7 -0.2 1.7-0.3 3.3-0.4 4.9s-0.1 3.2-0.1 4.9c0 1.6 0.1 3.2 0.1 4.7 0.1 1.6 0 3.1 0 4.7 0 0.6-0.2 1-0.5 1.4 -0.3 0.4-0.7 0.6-1.1 0.7 -0.4 0.1-0.9 0.1-1.3-0.1 -0.4-0.1-0.8-0.4-1.1-0.9 -0.8-1.3-1.5-2.6-2.1-4.1 -0.6-1.4-1.1-2.8-1.6-4.2 -0.5-1.4-1-2.7-1.6-4 -0.5-1.3-1.2-2.5-1.9-3.8 -0.9-1.7-1.9-3.2-2.9-4.8 -1-1.5-2.1-3-3.3-4.4 0 1.5 0 3 0 4.5s0 2.9 0.1 4.5c0.1 2.7 0.3 5.3 0.5 7.9 0.3 2.6 0.6 5.2 0.9 7.8 0.1 0.6-0.1 1.2-0.6 1.6 -0.5 0.4-1 0.6-1.5 0.6 -0.7 0-1.2-0.2-1.5-0.6 -0.4-0.4-0.6-0.9-0.7-1.6 -0.4-2.6-0.7-5.2-1-7.8 -0.3-2.6-0.5-5.2-0.5-7.9 -0.1-2.3-0.1-4.6-0.1-6.9 0-2.3 0-4.6 0-6.9 -0.1-0.1-0.1-0.1-0.2-0.2 -0.1-0.1-0.1-0.1-0.2-0.2 -0.4-0.4-0.6-0.9-0.6-1.4 0-0.5 0.2-0.9 0.4-1.3s0.6-0.7 1.1-0.9c0.5-0.2 0.9-0.2 1.4 0 0.6-0.1 1.1 0.1 1.7 0.4s0.8 0.9 0.8 1.7c1.9 2.3 3.6 4.5 5.2 6.6s3.1 4.5 4.5 6.9c0.6 1.1 1.2 2.2 1.7 3.4 0.5 1.2 1 2.3 1.5 3.5 0-1.5 0.1-3 0.2-4.5 0.1-1.5 0.3-3 0.5-4.5 0.4-3.2 0.8-6.3 1.2-9.5 0.4-3.2 0.6-6.4 0.6-9.6 0-0.7 0.2-1.2 0.7-1.6 0.5-0.4 1-0.5 1.5-0.5 0.5 0 1 0.2 1.5 0.5 0.5 0.4 0.7 0.9 0.7 1.6C568.9 60.2 568.7 63.5 568.2 66.8zM581.5 104.3l0-0.3c0 0.1 0.1 0.2 0.1 0.3C581.6 104.3 581.5 104.3 581.5 104.3z"></path>
    <path _ngcontent-c2="" class="logo__box logo__box--03" d="M626.8 85.1c0.1 0.8 0.2 1.7 0.2 2.6 0 1.6-0.3 3.1-0.9 4.4 -0.3 0.4-0.5 0.8-0.7 1 -0.2 0.2-0.4 0.5-0.8 0.9 -0.4 0.4-0.8 0.8-1.2 1.1 -0.4 0.3-0.8 0.6-1.3 0.9 -1.2 0.7-2.5 1.4-3.9 2 -1.4 0.6-2.8 0.9-4.2 1.1 -0.7 0.1-1.3 0.1-2 0.1 -0.7 0-1.3-0.1-2-0.2 0.4-3.1 0.7-6.2 0.8-9.2 0.1-3.1 0.3-6.2 0.4-9.3 0-1.1 0-2.2-0.1-3.3 -0.1-1.1-0.2-2.3-0.2-3.4 0-1.1 0-2.3 0.1-3.4 0.1-1.1 0.3-2.2 0.7-3.2 1.9 0.1 3.6 0.5 5.2 1.2 1.6 0.7 3 1.8 4.3 3.3 0.5 0.6 1 1.4 1.5 2.4s0.9 1.8 1.2 2.6c0.4 1 0.8 1.9 1.1 3 0.3 1 0.6 2 0.9 3.1C626.4 83.5 626.7 84.4 626.8 85.1zM645.7 54.6c-0.1 0.5-1.1 1.3-0.5 2.3 -0.2-0.3-0.7-0.8-1-0.1 0.4 1.1-0.3 0.2-0.7 0.8 0.1 1 1 0.2 0.6 1.7 0 0.2 0.3 0 0.5-0.1 -0.3 1 0.1 1.6-0.4 2.6 0.2-0.4 0.4-0.8 0.6-0.2 -0.5-0.3-0.5 0.8-0.8 1.2l0.3 0.1c-0.3 0.3-0.4 0-0.5-0.3 0.1 0 0.2-0.1 0.2-0.3 -0.2-0.5-1.4-0.3-1.5 0.4 0.3 0.9 1 0.7 1.3 0.6 -0.3 1.1 1.3 1.1 0.8 2.2 0 0.2-1.2 1-1.3 1.8 0.7 0.4 0.5-1 1.1-0.5 -1.7 1.3 1 2.7-0.1 4.4l-0.8-0.2c-0.1 0.4-0.1 0.8 0 1.2l0.5-0.6c0.2 0.4 0 1.3-0.6 1 0.6 0.9 0.3 1.1 0 1.9 0.1-0.9 0.1 0-0.3-0.7 -0.4 0.9-0.2 1 0 1.6 -0.3-0.1-0.7 0.2-0.8 0.5 0.5 0.6 0.4 1.6 0.6 2.5l-0.2 0c0.3 1.4-0.9 2.9-0.2 4.4 0 0 0 0.1 0 0.1l0.1-0.1c0.8-0.5 0.5 1.1 0.8 1.6 -0.2 0.1-0.5 0.1-0.6 0.4 0.7 0 0.4 0.6 0.7 0.8 -0.3 0.5-0.9-0.1-0.9 0.8 0.1 0.3 0.4 0.4 0.7 0.3 -0.4 0.2-0.7 0.7-0.8 1.1 -0.2-0.2 0.1-0.4 0-0.5 -0.4-0.1-0.3 0.2-0.7 0.2 -0.1 0.4 0.7 0.2 0.4 0.7l-0.6-0.5c-0.2 0.2 0.1 0.5 0.1 0.5 -0.1-0.2-0.3-0.2-0.5-0.2l0 0.6c0.5 0.1 1.2-0.3 1.6-0.2 -0.5 1.1 0.3 1.9 0.3 2.8l-0.7-0.2c0.1 0.4 0.2 0.6 0.5 0.8l0 0.6c-0.2-0.4-0.4-0.5-1-0.5 0.2 0.7 0 1.6 0.9 1.8l-0.2 0c-0.3 0.9-0.6 2.7-0.9 2.7 0.3 1-0.3 2.2 0.6 2.2 0.2 0.6-1.2 1.5-0.1 1.9 -0.6 0.7-0.2 0-0.9-0.2 -0.6 0.7 0.9 1.4-0.4 1.6 0.4 0.8 0.3-0.2 0.8 0.1 -1.2 0.1-0.2 1.5-0.9 2.2 0.5 0.3 0.3-0.3 0.8 0.3 -0.3-0.1-0.4 0.2-0.4 0.4l0.8 0.2 -1.3 0.5 0 0.7c0.5 0.2 0.8-0.3 1 0.8l-0.1-0.1c-0.8 0.4 0.6 1.1-0.1 2.1 0.2-0.4-0.4-0.2-0.6-0.3l0.3 0.6c0-0.1-0.1-0.1-0.2 0 -0.6 0.5 0.3 0.5-0.2 1.1 -0.1-0.2-0.2-0.2-0.3-0.3l0 0.8 0.2 0.2 -0.2-0.1 -0.1 4.5c0.2 0.5 0.1 1 0 1.6l0 0.5 -0.1 0c0 0.1 0 0.1 0 0.2l-0.6 0.2c0 0.4 0.3 0.6 0.6 0.7 0.2 0.3-1 1.2-1.6 1.3 -1.6-0.2-0.2-1.4-1.3-1.8l-1.5 0.5 0-0.4c-0.2-0.3-0.4 0.1-0.4 0.2 0.1-0.6-1.2-0.3-1.7-0.4l0.2 0.5c-1.7 1.1-2.5-1.5-3.8-1l-1 0.8 -0.1-0.8c-0.6 0.4-0.7 1-1.6 0.6 -2.9-1.6-6.4-0.2-9.4-1.3 0 0.2 0.1 0.2 0.3 0.3 -2.6-2.1-4.4 1.6-6.7-0.1l0.2-0.3c-1.3 0 0.2-0.3-0.7-0.8 -0.2 0.9-1.6 0.6-2.4 0.8 0.1-0.2 0.4-0.1 0.6-0.3 -0.1-0.2-0.1-0.8-0.5-0.6 -0.9 1.2-2.6 1-3.9 1.2 -0.1-0.6-1.1-1.2-1.6-2.2 -0.1 0.2-0.4 0.6-0.7 1.1 -0.4-0.4-0.8-0.2-1.1 0.2 0.4 0 0.8 0 1 0 0 0 0 0 0 0.1 0 0 0.1 0 0.2-0.1 0.3 0 0.4 0 0.4-0.1 0.5 0.6-0.1 0.5-0.1 1.2 -0.4-0.1-1.3 0.1-1.3-0.4 -0.2 0-0.4-0.1-0.7-0.2 -0.2 0.1-0.3 0.1-0.5 0.1l0.1-0.1c0-0.1-0.1-0.2-0.1-0.2 -0.8-0.4-2 0.6-2.7 1 0.7-0.8-0.1-1 0-1.6 -0.1 0 0.7 0.2 1.8 0.3 -0.1-0.1-0.1-0.2-0.1-0.4 -0.8-0.8-1.6 0.5-2.8-0.1 0.1-0.1 0.3-0.2 0.2-0.4 -0.2-0.1-0.4 0-0.7 0.1 -0.3 0.1-0.5 0.3-0.6 0.5 0-0.3-0.4-0.6-0.7-0.8 -0.4-0.2-0.8-0.3-1.2-0.2 -0.9 0.4-1 0.7-2.1 0.5l0.9-0.4c-0.7-0.3-1.3 0.1-1.9 0.2 0-0.1 0-0.3 0.1-0.5 0 0.3 0.3 0 0.4-0.4 -0.1-0.6-0.2-0.8-0.4-1 -0.2-0.2-0.5-0.3-0.9-0.7 0.2 0 0.5-0.1 0.7-0.1 -0.2-0.5-0.4-1.4-0.5-2.2 0-0.4 0-0.8 0-1.1 0.1-0.2 0.2-0.3 0.4-0.2 -1.5 0.2-0.6-1.8-0.5-2.5 0 0.2 0.3 0.3 0.5 0.3 -0.8-1.5 0.2-3 0.3-4.5l1.1-0.2c0-0.8-2-1.2-1.9-2l0.5 0.3c-0.1-1.5 0.1-2.1 0.3-3.4l0.7 0.1c-0.3-0.5-0.3-1-0.5-1.5 1.8-0.9-0.6-4.1 1.4-5.8l-1.3-0.2c0.1-0.7-0.1-1.6 0.9-1.9l0 0.2c1 0.1 0.1-0.7 0.3-1.1 -0.1-0.3-0.7-0.7-0.9-0.4 0.8-1.8 0.3-4.6 1.6-5.7 -0.3-1.9-1.2-3.4-0.9-5.4l0.2 0c0.2-0.7 0.7-2 1.8-1.9 -0.1-1.5-1.6-2.5-1-4.2l0.4 0.4c0.2-0.4-0.2-1.2-0.3-1.4 0-0.2 0.2 0 0.4 0 0.4-0.4-0.2-0.7-0.3-1l0.4 0.2c0.9-1.3-0.5-3.6-0.2-5.4 0.1 0.3 0.5 0.2 0.7 0.1 -1.2-0.8-0.7-2.8-1-3.6l0.4 0.5c-0.7-1.5 1.4-1.2 0.7-2.7l-0.8 0.8c0.2-0.6 0.1-1.1-0.5-1 0.5-0.7 0.9 0 1.1-1 0.3 0 0.2 0.8 0.6 0.5l1-1.4 0 0c0 0 0-0.1 0.1-0.1l-0.1 0.1c0.1 0 0.1-0.2 0.1-0.7 -1.5 0 0-1.2-1.5-0.6 0-1 0.3-1.9 0.5-2.8 0.2-0.7 0.4-2.2 0.1-3.8 0.9-0.3 0.9-1.8 1.1-2.9 1 0.1 1.8 0.4 2.2 1.2 1.2 0.1 1.9-0.3 2.8-1 -0.3-0.2-0.7 0.1-0.9 0.1 0.1-0.2 0.6-0.3 1.2-0.4 0.3 0 0.5 0 0.8 0 0.2 0 0.4 0 0.5 0 -0.5 0.4-2.2 0.7-2.5 1.4 0.5-0.1 1.1-0.3 1.8-0.4 0.5-0.2 0.9-0.4 1.2-0.5l0.2 1c0.8-0.7 0.6 0.8 1.4-0.1l-0.1-0.3c1.4 0.1 1.4-0.8 2.7-0.9l-0.1 0.4c0.4 0.2 1.1-0.7 1.5 0.2l-0.8 0c0 0.7 0.7 1 0.9 1.4 0.9-0.1 0.4-1.1 0.8-1.2 0.2 0.7 0 0.3-0.3 1 1-0.2 2.4-0.4 3.1-1.2 0 0.1 0 0.2 0 0.2 1 0.2 2-0.9 2.6-0.4l-0.2 0.1c0.8 1 2.2-0.8 2.3 0.8 0.4 0.3-0.9-0.1-0.3 0.7 1.2 0.6 0.9-1.3 1.9-0.8 -0.1-0.1-0.1 0-0.2 0.2 0.8 0 1.8-0.1 2.7-0.2 1 1.4 3.3-0.1 4.4 1.4 -0.4-0.6 0.3-0.6 0.4-0.9 0 0-0.1 0.1 0 0.2 0.4 0.1 0.5-0.4 0.7-0.7 0.3 0.5 1.3-0.4 1.5-0.1 0-0.3 0.4-0.2 0.8-0.2 -0.8 0.3-0.3 0.7-0.7 1.2 1.2 0.2 1.4-1.4 2.7-1.1l0.6 0.7c0.2-1 1.3-0.5 1.3-0.9 0.2 0.3 0.5 0.5 0.4 1 0.5-0.2 1.2 0.3 1.4-0.2l-0.5-0.3c1.5 0.5 2.5-0.9 3.6-0.2l-0.1 1.5c0.4 0.3 0.7 0.1 1.1 0 0.5-0.1 1-0.2 1.3 0.2 -0.1-0.5-0.3-0.4 0.6-0.8 -0.4-0.1-1.3 0.2-2 0.2 0.5-0.3 1.1-0.5 1.8-0.8l-1.4 0.1 -0.3 0 -0.2 0 -0.4 0.1c0.7-0.5 0.7-0.4 0.4-1 0.2-0.1 0.6-0.1 0.9 0 0.3 0.1 0.5 0.1 0.7 0.2 0.4 0.2 0.8 0.4 1.7 0.1 0.5 0.2-0.4 0.7 0.1 1 0.6-0.2 1 0 1.3 0.1 0.3 0.2 0.5 0.4 0.8 0.5 0 0.3 0 0.4 0.2 0.5 -0.2 0.4 0-0.5-0.4-0.1 0.1 0.6 0.1 1.2 0.5 1.1l0.2-0.8c-0.1 0.6 0.5 0.4 0.2 1.8 0.3 0.5 1 0.8 1.1-0.1 0.1 0.3-0.3 1.2-0.8 1.1 0 1 0.4 1.2 0.7 1.4 0.2 0.1 0.3 0.3 0.3 0.4 0 0.1 0 0.3-0.2 0.6 0-0.1-0.1-0.2-0.2-0.1 -0.1 0.3-0.1 0.5 0 0.7 -0.1-1-1.2 0.3-0.9-0.9 -0.8 0.1-0.2 0.9-0.5 1.3 0.5 0.6 1.1 0.1 1.5 0.4 -0.2 0-0.3 0.2-0.4 0.5l0.6-0.3c0 0.2 0 0.5 0.1 0.8L645.7 54.6zM602 117.1c0 0.1 0.1 0.3 0.4 0.2 0.1-0.1 0.1-0.2 0.1-0.3 0 0 0 0.1 0 0.1C602.3 117.1 602.2 117.1 602 117.1zM631.3 86c-0.1-1-0.3-2-0.5-3 -0.2-1-0.5-2-0.8-2.9 -0.3-1-0.6-1.9-0.9-2.8 -0.7-2.1-1.5-4.1-2.6-6.1 -1.1-2-2.5-3.7-4.2-5.1 -1.4-1.2-3-2-4.7-2.6 -1.7-0.5-3.4-0.9-5.2-1 -0.4-0.4-0.9-0.6-1.5-0.6 -0.6 0-1.1 0.2-1.6 0.7 -0.7 0.1-1.2 0.5-1.5 1.2 -0.3 0.6-0.3 1.2-0.1 1.8 -0.4 1.1-0.7 2.2-0.8 3.3 -0.1 1.1-0.2 2.3-0.2 3.5 0 1.2 0 2.3 0.1 3.5 0.1 1.2 0.1 2.3 0.1 3.4 0 1.8 0 3.5-0.1 5.3 -0.1 1.7-0.2 3.5-0.3 5.3 -0.1 1.5-0.2 3-0.3 4.5 -0.1 1.5-0.3 3-0.5 4.4 -0.7 0.5-1.1 1.1-1.1 1.9 0 0.6 0.2 1.2 0.7 1.6 0.2 0.8 0.7 1.4 1.5 1.6 0.4 0.1 0.8 0.1 1.2 0 0.4-0.1 0.8-0.4 1.1-0.7 1.2 0.1 2.5 0.2 3.7 0.3 1.2 0 2.5-0.1 3.7-0.4 1.4-0.3 2.8-0.8 4.3-1.4 1.4-0.6 2.8-1.3 4-2.1 1.9-1.2 3.4-2.7 4.5-4.5 1.1-1.8 1.8-3.8 2-6C631.5 88 631.5 87 631.3 86zM640.9 108.7l0 0.3c0 0 0.1 0 0.1-0.1C641 108.9 641 108.8 640.9 108.7z"></path>
    <path _ngcontent-c2="" class="logo__highlight logo__highlight--01" d="M517 24.8V2.7h2.8l13.5 17.8V2.7h2.7v22.1h-2.8l-13.5-18v18H517zM558.1 24c-1.8 0.7-3.7 1-5.8 1 -8 0-12-3.8-12-11.5 0-7.3 3.9-10.9 11.6-10.9 2.2 0 4.3 0.3 6.2 0.9v2.5c-1.9-0.7-3.9-1.1-5.9-1.1 -6 0-9.1 2.9-9.1 8.6 0 6.1 3 9.2 8.9 9.2 0.9 0 2-0.1 3.2-0.4v-7.4h2.8V24L558.1 24zM562.7 16.3V2.7h2.8v13.6c0 4.3 2.1 6.4 6.4 6.4 4.2 0 6.4-2.1 6.4-6.4V2.7h2.8v13.6c0 5.8-3.1 8.7-9.2 8.7C565.7 25 562.7 22.1 562.7 16.3zM589 2.7v19.8h11.6v2.3h-14.4V2.7L589 2.7 589 2.7zM604.7 24.8h-3l11-25.1 11 25.1h-3.2l-2.8-7h-7.3l0.8-2.3h5.6l-4.1-10L604.7 24.8 604.7 24.8zM494.6 24.8h-3l11-25.1 11 25.1h-3.2l-2.8-7h-7.3l0.8-2.3h5.6l-4.1-10L494.6 24.8 494.6 24.8zM626.8 24.8V2.7h9.5c4.2 0 6.3 1.8 6.3 5.3 0 2.9-2.1 5-6.2 6.4l7.6 10.4h-3.8l-7-9.9V13c4.2-0.7 6.4-2.3 6.4-4.9 0-2-1.2-3.1-3.5-3.1h-6.3v19.7L626.8 24.8 626.8 24.8z"></path>
</svg>
